<svg width="1562" height="580" viewBox="0 0 1562 580" fill="none" xmlns="http://www.w3.org/2000/svg">
<rect width="1562" height="580" rx="67" fill="#00D9BD"/>
<path opacity="0.31" d="M57.9932 224C57.9932 168.772 102.765 124 157.993 124H1404.01C1459.24 124 1504.01 168.772 1504.01 224V580H57.9932V224Z" fill="white"/>
<path d="M92.0557 221.766C92.0557 184.763 122.053 154.766 159.056 154.766H1402.94C1439.95 154.766 1469.94 184.763 1469.94 221.766V579.999H92.0557V221.766Z" fill="white"/>
<rect x="165.675" y="252.559" width="91.2" height="90.1012" rx="45.0506" fill="#0F1D4B"/>
<path d="M202.784 313.746C202.784 317.64 199.641 320.795 195.767 320.795C191.892 320.795 188.749 317.64 188.749 313.746C188.749 309.852 191.892 306.696 195.767 306.696C199.641 306.696 202.784 309.852 202.784 313.746Z" fill="#00D9BD"/>
<path d="M222.586 319.845C222.586 316.073 220.121 312.799 216.463 310.928C211.669 308.472 201.086 302.888 197.416 300.855C192.095 297.905 188.749 292.759 188.749 287.09C188.749 277.729 198.071 270.14 209.57 270.14C221.069 270.14 230.391 277.729 230.391 287.09V290.582H219.36V287.09C219.362 283.212 214.979 280.069 209.57 280.069C204.161 280.069 199.777 283.212 199.777 287.09C199.777 289.38 201.3 291.431 203.676 292.699C207.256 294.607 217.745 300.077 222.315 302.504C228.944 306.027 233.73 311.606 233.73 318.438C233.73 318.893 233.71 319.342 233.67 319.788L222.586 319.845Z" fill="white"/>
<rect x="165.675" y="407" width="416.443" height="90.1012" rx="45.0506" fill="#F2F2F2"/>
<path d="M209.941 440.925C209.941 437.967 212.377 435.569 215.382 435.569C218.388 435.569 220.824 437.967 220.824 440.925C220.824 443.884 218.388 446.282 215.382 446.282C212.377 446.282 209.941 443.884 209.941 440.925ZM203.662 438.865C200.888 438.865 198.639 441.079 198.639 443.81C198.639 446.541 200.888 448.754 203.662 448.754C206.436 448.754 208.685 446.541 208.685 443.81C208.685 441.079 206.436 438.865 203.662 438.865ZM227.103 438.865C224.328 438.865 222.08 441.079 222.08 443.81C222.08 446.541 224.328 448.754 227.103 448.754C229.877 448.754 232.126 446.541 232.126 443.81C232.126 441.079 229.877 438.865 227.103 438.865ZM210.778 448.754C209.159 448.754 207.848 450.046 207.848 451.639V457.819C207.848 461.916 211.221 465.236 215.382 465.236L215.419 465.236C214.336 463.571 213.708 461.592 213.708 459.468C213.708 454.598 217.008 450.487 221.527 449.185C221.08 448.912 220.552 448.754 219.987 448.754H210.778ZM206.357 450.366C206.238 450.77 206.173 451.197 206.173 451.639V457.82C206.173 460.661 207.502 463.198 209.581 464.86C209.442 464.905 209.302 464.946 209.159 464.984C205.139 466.044 201.008 463.696 199.931 459.739L198.739 455.361C198.32 453.823 199.248 452.241 200.811 451.829L206.357 450.366ZM233.8 459.468C233.8 454.461 229.677 450.403 224.591 450.403C219.505 450.403 215.382 454.461 215.382 459.468C215.382 464.474 219.505 468.533 224.591 468.533C229.677 468.533 233.8 464.474 233.8 459.468ZM225.429 460.292L225.43 464.418C225.43 464.873 225.055 465.242 224.593 465.242C224.131 465.242 223.756 464.873 223.756 464.418L223.755 460.292H219.561C219.099 460.292 218.724 459.923 218.724 459.468C218.724 459.013 219.099 458.644 219.561 458.644H223.755L223.754 454.522C223.754 454.067 224.129 453.698 224.591 453.698C225.053 453.698 225.428 454.067 225.428 454.522L225.429 458.644H229.609C230.07 458.644 230.445 459.013 230.445 459.468C230.445 459.923 230.07 460.292 229.609 460.292H225.429Z" fill="#0F1D4B"/>
<path d="M285.437 457.766V443.566H290.257C291.763 443.566 293.017 443.886 294.017 444.526C295.03 445.153 295.79 446.006 296.297 447.086C296.803 448.153 297.057 449.34 297.057 450.646C297.057 452.086 296.777 453.34 296.217 454.406C295.67 455.473 294.883 456.3 293.857 456.886C292.843 457.473 291.643 457.766 290.257 457.766H285.437ZM295.657 450.646C295.657 449.513 295.443 448.506 295.017 447.626C294.603 446.746 293.997 446.06 293.197 445.566C292.397 445.06 291.417 444.806 290.257 444.806H286.837V456.526H290.257C291.43 456.526 292.417 456.266 293.217 455.746C294.017 455.226 294.623 454.526 295.037 453.646C295.45 452.753 295.657 451.753 295.657 450.646Z" fill="#404040"/>
<path d="M298.535 454.766C298.535 454.113 298.722 453.553 299.095 453.086C299.469 452.606 299.982 452.24 300.635 451.986C301.302 451.72 302.069 451.586 302.935 451.586C303.442 451.586 303.969 451.626 304.515 451.706C305.062 451.786 305.549 451.906 305.975 452.066V451.186C305.975 450.306 305.715 449.606 305.195 449.086C304.675 448.566 303.955 448.306 303.035 448.306C302.475 448.306 301.922 448.413 301.375 448.626C300.842 448.826 300.282 449.126 299.695 449.526L299.175 448.566C299.855 448.1 300.522 447.753 301.175 447.526C301.829 447.286 302.495 447.166 303.175 447.166C304.455 447.166 305.469 447.533 306.215 448.266C306.962 449 307.335 450.013 307.335 451.306V456.126C307.335 456.313 307.375 456.453 307.455 456.546C307.535 456.626 307.662 456.673 307.835 456.686V457.766C307.689 457.78 307.562 457.793 307.455 457.806C307.349 457.82 307.269 457.82 307.215 457.806C306.882 457.793 306.629 457.686 306.455 457.486C306.282 457.286 306.189 457.073 306.175 456.846L306.155 456.086C305.689 456.686 305.082 457.153 304.335 457.486C303.589 457.806 302.829 457.966 302.055 457.966C301.389 457.966 300.782 457.826 300.235 457.546C299.702 457.253 299.282 456.866 298.975 456.386C298.682 455.893 298.535 455.353 298.535 454.766ZM305.515 455.566C305.662 455.38 305.775 455.2 305.855 455.026C305.935 454.853 305.975 454.7 305.975 454.566V453.046C305.522 452.873 305.049 452.74 304.555 452.646C304.075 452.553 303.589 452.506 303.095 452.506C302.122 452.506 301.335 452.7 300.735 453.086C300.135 453.473 299.835 454 299.835 454.666C299.835 455.053 299.935 455.42 300.135 455.766C300.335 456.1 300.629 456.38 301.015 456.606C301.402 456.82 301.855 456.926 302.375 456.926C303.029 456.926 303.635 456.8 304.195 456.546C304.769 456.293 305.209 455.966 305.515 455.566Z" fill="#404040"/>
<path d="M309.574 452.586C309.574 451.6 309.774 450.7 310.174 449.886C310.587 449.06 311.154 448.4 311.874 447.906C312.594 447.413 313.414 447.166 314.334 447.166C315.2 447.166 315.974 447.4 316.654 447.866C317.347 448.32 317.887 448.873 318.274 449.526V443.166H319.634V456.126C319.634 456.313 319.674 456.453 319.754 456.546C319.834 456.626 319.954 456.673 320.114 456.686V457.766C319.847 457.806 319.64 457.82 319.494 457.806C319.214 457.793 318.967 457.68 318.754 457.466C318.54 457.253 318.434 457.02 318.434 456.766V455.746C318.02 456.426 317.46 456.966 316.754 457.366C316.047 457.766 315.314 457.966 314.554 457.966C313.834 457.966 313.167 457.82 312.554 457.526C311.954 457.233 311.427 456.833 310.974 456.326C310.534 455.82 310.187 455.246 309.934 454.606C309.694 453.953 309.574 453.28 309.574 452.586ZM318.274 454.186V450.966C318.1 450.486 317.82 450.053 317.434 449.666C317.047 449.266 316.607 448.953 316.114 448.726C315.634 448.486 315.154 448.366 314.674 448.366C314.114 448.366 313.607 448.486 313.154 448.726C312.7 448.953 312.307 449.266 311.974 449.666C311.654 450.066 311.407 450.52 311.234 451.026C311.06 451.533 310.974 452.053 310.974 452.586C310.974 453.146 311.067 453.68 311.254 454.186C311.454 454.693 311.734 455.146 312.094 455.546C312.454 455.933 312.867 456.233 313.334 456.446C313.8 456.66 314.307 456.766 314.854 456.766C315.2 456.766 315.56 456.7 315.934 456.566C316.307 456.433 316.66 456.253 316.994 456.026C317.34 455.786 317.627 455.506 317.854 455.186C318.08 454.866 318.22 454.533 318.274 454.186Z" fill="#404040"/>
<path d="M327.155 457.966C326.408 457.966 325.715 457.826 325.075 457.546C324.448 457.253 323.902 456.86 323.435 456.366C322.982 455.86 322.628 455.286 322.375 454.646C322.122 453.993 321.995 453.306 321.995 452.586C321.995 451.84 322.122 451.146 322.375 450.506C322.628 449.853 322.988 449.28 323.455 448.786C323.922 448.28 324.468 447.886 325.095 447.606C325.735 447.313 326.428 447.166 327.175 447.166C327.922 447.166 328.608 447.313 329.235 447.606C329.862 447.886 330.408 448.28 330.875 448.786C331.342 449.28 331.702 449.853 331.955 450.506C332.208 451.146 332.335 451.84 332.335 452.586C332.335 453.306 332.208 453.993 331.955 454.646C331.702 455.286 331.342 455.86 330.875 456.366C330.422 456.86 329.875 457.253 329.235 457.546C328.608 457.826 327.915 457.966 327.155 457.966ZM323.375 452.606C323.375 453.38 323.542 454.086 323.875 454.726C324.222 455.353 324.682 455.853 325.255 456.226C325.828 456.586 326.462 456.766 327.155 456.766C327.848 456.766 328.482 456.58 329.055 456.206C329.628 455.833 330.088 455.326 330.435 454.686C330.782 454.033 330.955 453.326 330.955 452.566C330.955 451.793 330.782 451.086 330.435 450.446C330.088 449.806 329.628 449.3 329.055 448.926C328.482 448.553 327.848 448.366 327.155 448.366C326.462 448.366 325.828 448.56 325.255 448.946C324.695 449.333 324.242 449.846 323.895 450.486C323.548 451.113 323.375 451.82 323.375 452.606Z" fill="#404040"/>
<path d="M338.03 457.966C337.176 457.966 336.383 457.826 335.65 457.546C334.916 457.266 334.283 456.84 333.75 456.266L334.31 455.306C334.896 455.853 335.483 456.253 336.07 456.506C336.67 456.746 337.303 456.866 337.97 456.866C338.783 456.866 339.443 456.706 339.95 456.386C340.456 456.053 340.71 455.58 340.71 454.966C340.71 454.553 340.583 454.24 340.33 454.026C340.09 453.8 339.736 453.62 339.27 453.486C338.816 453.34 338.27 453.186 337.63 453.026C336.91 452.826 336.303 452.62 335.81 452.406C335.33 452.18 334.963 451.9 334.71 451.566C334.47 451.22 334.35 450.773 334.35 450.226C334.35 449.546 334.516 448.986 334.85 448.546C335.196 448.093 335.663 447.753 336.25 447.526C336.85 447.286 337.516 447.166 338.25 447.166C339.05 447.166 339.756 447.293 340.37 447.546C340.983 447.8 341.483 448.153 341.87 448.606L341.21 449.526C340.836 449.1 340.39 448.786 339.87 448.586C339.363 448.373 338.796 448.266 338.17 448.266C337.743 448.266 337.336 448.326 336.95 448.446C336.563 448.553 336.243 448.74 335.99 449.006C335.75 449.26 335.63 449.613 335.63 450.066C335.63 450.44 335.723 450.733 335.91 450.946C336.096 451.146 336.376 451.32 336.75 451.466C337.123 451.6 337.583 451.746 338.13 451.906C338.916 452.12 339.603 452.34 340.19 452.566C340.776 452.78 341.23 453.06 341.55 453.406C341.87 453.753 342.03 454.24 342.03 454.866C342.03 455.84 341.663 456.6 340.93 457.146C340.196 457.693 339.23 457.966 338.03 457.966Z" fill="#404040"/>
<path d="M359.149 444.806H354.089V457.766H352.689V444.806H347.629V443.566H359.149V444.806Z" fill="#404040"/>
<path d="M364.399 448.546C363.493 448.573 362.693 448.826 361.999 449.306C361.319 449.786 360.839 450.446 360.559 451.286V457.766H359.199V447.346H360.479V449.846C360.839 449.113 361.313 448.52 361.899 448.066C362.499 447.613 363.133 447.36 363.799 447.306C363.933 447.293 364.046 447.286 364.139 447.286C364.246 447.286 364.333 447.293 364.399 447.306V448.546Z" fill="#404040"/>
<path d="M365.332 454.766C365.332 454.113 365.519 453.553 365.892 453.086C366.265 452.606 366.779 452.24 367.432 451.986C368.099 451.72 368.865 451.586 369.732 451.586C370.239 451.586 370.765 451.626 371.312 451.706C371.859 451.786 372.345 451.906 372.772 452.066V451.186C372.772 450.306 372.512 449.606 371.992 449.086C371.472 448.566 370.752 448.306 369.832 448.306C369.272 448.306 368.719 448.413 368.172 448.626C367.639 448.826 367.079 449.126 366.492 449.526L365.972 448.566C366.652 448.1 367.319 447.753 367.972 447.526C368.625 447.286 369.292 447.166 369.972 447.166C371.252 447.166 372.265 447.533 373.012 448.266C373.759 449 374.132 450.013 374.132 451.306V456.126C374.132 456.313 374.172 456.453 374.252 456.546C374.332 456.626 374.459 456.673 374.632 456.686V457.766C374.485 457.78 374.359 457.793 374.252 457.806C374.145 457.82 374.065 457.82 374.012 457.806C373.679 457.793 373.425 457.686 373.252 457.486C373.079 457.286 372.985 457.073 372.972 456.846L372.952 456.086C372.485 456.686 371.879 457.153 371.132 457.486C370.385 457.806 369.625 457.966 368.852 457.966C368.185 457.966 367.579 457.826 367.032 457.546C366.499 457.253 366.079 456.866 365.772 456.386C365.479 455.893 365.332 455.353 365.332 454.766ZM372.312 455.566C372.459 455.38 372.572 455.2 372.652 455.026C372.732 454.853 372.772 454.7 372.772 454.566V453.046C372.319 452.873 371.845 452.74 371.352 452.646C370.872 452.553 370.385 452.506 369.892 452.506C368.919 452.506 368.132 452.7 367.532 453.086C366.932 453.473 366.632 454 366.632 454.666C366.632 455.053 366.732 455.42 366.932 455.766C367.132 456.1 367.425 456.38 367.812 456.606C368.199 456.82 368.652 456.926 369.172 456.926C369.825 456.926 370.432 456.8 370.992 456.546C371.565 456.293 372.005 455.966 372.312 455.566Z" fill="#404040"/>
<path d="M382.171 457.966C381.357 457.966 380.604 457.76 379.911 457.346C379.217 456.92 378.677 456.386 378.291 455.746V457.766H377.071V443.166H378.431V449.526C378.897 448.82 379.457 448.253 380.111 447.826C380.764 447.386 381.524 447.166 382.391 447.166C383.124 447.166 383.777 447.32 384.351 447.626C384.937 447.933 385.437 448.346 385.851 448.866C386.264 449.373 386.577 449.953 386.791 450.606C387.004 451.246 387.111 451.906 387.111 452.586C387.111 453.32 386.984 454.006 386.731 454.646C386.491 455.286 386.144 455.86 385.691 456.366C385.237 456.86 384.711 457.253 384.111 457.546C383.524 457.826 382.877 457.966 382.171 457.966ZM381.851 456.766C382.411 456.766 382.931 456.653 383.411 456.426C383.891 456.2 384.304 455.886 384.651 455.486C384.997 455.086 385.264 454.64 385.451 454.146C385.637 453.64 385.731 453.12 385.731 452.586C385.731 451.853 385.571 451.166 385.251 450.526C384.944 449.873 384.511 449.353 383.951 448.966C383.404 448.566 382.757 448.366 382.011 448.366C381.477 448.366 380.977 448.486 380.511 448.726C380.057 448.966 379.651 449.286 379.291 449.686C378.944 450.073 378.657 450.5 378.431 450.966V454.206C378.484 454.566 378.624 454.906 378.851 455.226C379.077 455.533 379.357 455.8 379.691 456.026C380.037 456.253 380.397 456.433 380.771 456.566C381.144 456.7 381.504 456.766 381.851 456.766Z" fill="#404040"/>
<path d="M388.574 454.766C388.574 454.113 388.761 453.553 389.134 453.086C389.508 452.606 390.021 452.24 390.674 451.986C391.341 451.72 392.108 451.586 392.974 451.586C393.481 451.586 394.008 451.626 394.554 451.706C395.101 451.786 395.588 451.906 396.014 452.066V451.186C396.014 450.306 395.754 449.606 395.234 449.086C394.714 448.566 393.994 448.306 393.074 448.306C392.514 448.306 391.961 448.413 391.414 448.626C390.881 448.826 390.321 449.126 389.734 449.526L389.214 448.566C389.894 448.1 390.561 447.753 391.214 447.526C391.868 447.286 392.534 447.166 393.214 447.166C394.494 447.166 395.508 447.533 396.254 448.266C397.001 449 397.374 450.013 397.374 451.306V456.126C397.374 456.313 397.414 456.453 397.494 456.546C397.574 456.626 397.701 456.673 397.874 456.686V457.766C397.728 457.78 397.601 457.793 397.494 457.806C397.388 457.82 397.308 457.82 397.254 457.806C396.921 457.793 396.668 457.686 396.494 457.486C396.321 457.286 396.228 457.073 396.214 456.846L396.194 456.086C395.728 456.686 395.121 457.153 394.374 457.486C393.628 457.806 392.868 457.966 392.094 457.966C391.428 457.966 390.821 457.826 390.274 457.546C389.741 457.253 389.321 456.866 389.014 456.386C388.721 455.893 388.574 455.353 388.574 454.766ZM395.554 455.566C395.701 455.38 395.814 455.2 395.894 455.026C395.974 454.853 396.014 454.7 396.014 454.566V453.046C395.561 452.873 395.088 452.74 394.594 452.646C394.114 452.553 393.628 452.506 393.134 452.506C392.161 452.506 391.374 452.7 390.774 453.086C390.174 453.473 389.874 454 389.874 454.666C389.874 455.053 389.974 455.42 390.174 455.766C390.374 456.1 390.668 456.38 391.054 456.606C391.441 456.82 391.894 456.926 392.414 456.926C393.068 456.926 393.674 456.8 394.234 456.546C394.808 456.293 395.248 455.966 395.554 455.566Z" fill="#404040"/>
<path d="M400.373 443.166H401.733V455.406C401.733 455.926 401.826 456.266 402.013 456.426C402.199 456.586 402.426 456.666 402.693 456.666C402.933 456.666 403.173 456.64 403.413 456.586C403.653 456.533 403.859 456.48 404.033 456.426L404.273 457.526C404.019 457.633 403.706 457.72 403.333 457.786C402.973 457.853 402.659 457.886 402.393 457.886C401.779 457.886 401.286 457.706 400.913 457.346C400.553 456.986 400.373 456.493 400.373 455.866V443.166Z" fill="#404040"/>
<path d="M414.522 457.766H413.162V451.946C413.162 450.773 412.955 449.893 412.542 449.306C412.129 448.706 411.535 448.406 410.762 448.406C410.255 448.406 409.749 448.54 409.242 448.806C408.749 449.06 408.309 449.413 407.922 449.866C407.549 450.306 407.282 450.813 407.122 451.386V457.766H405.762V443.166H407.122V449.706C407.535 448.933 408.109 448.32 408.842 447.866C409.589 447.4 410.382 447.166 411.222 447.166C411.822 447.166 412.329 447.273 412.742 447.486C413.169 447.7 413.509 448.013 413.762 448.426C414.029 448.826 414.222 449.3 414.342 449.846C414.462 450.38 414.522 450.986 414.522 451.666V457.766Z" fill="#404040"/>
<path d="M417.422 457.766V447.346H418.782V457.766H417.422ZM417.422 445.166V443.166H418.782V445.166H417.422Z" fill="#404040"/>
<path d="M425.198 457.966C424.344 457.966 423.551 457.826 422.818 457.546C422.084 457.266 421.451 456.84 420.918 456.266L421.478 455.306C422.064 455.853 422.651 456.253 423.238 456.506C423.838 456.746 424.471 456.866 425.138 456.866C425.951 456.866 426.611 456.706 427.118 456.386C427.624 456.053 427.878 455.58 427.878 454.966C427.878 454.553 427.751 454.24 427.498 454.026C427.258 453.8 426.904 453.62 426.438 453.486C425.984 453.34 425.438 453.186 424.798 453.026C424.078 452.826 423.471 452.62 422.978 452.406C422.498 452.18 422.131 451.9 421.878 451.566C421.638 451.22 421.518 450.773 421.518 450.226C421.518 449.546 421.684 448.986 422.018 448.546C422.364 448.093 422.831 447.753 423.418 447.526C424.018 447.286 424.684 447.166 425.418 447.166C426.218 447.166 426.924 447.293 427.538 447.546C428.151 447.8 428.651 448.153 429.038 448.606L428.378 449.526C428.004 449.1 427.558 448.786 427.038 448.586C426.531 448.373 425.964 448.266 425.338 448.266C424.911 448.266 424.504 448.326 424.118 448.446C423.731 448.553 423.411 448.74 423.158 449.006C422.918 449.26 422.798 449.613 422.798 450.066C422.798 450.44 422.891 450.733 423.078 450.946C423.264 451.146 423.544 451.32 423.918 451.466C424.291 451.6 424.751 451.746 425.298 451.906C426.084 452.12 426.771 452.34 427.358 452.566C427.944 452.78 428.398 453.06 428.718 453.406C429.038 453.753 429.198 454.24 429.198 454.866C429.198 455.84 428.831 456.6 428.098 457.146C427.364 457.693 426.398 457.966 425.198 457.966Z" fill="#404040"/>
<path d="M436.446 457.266C436.339 457.306 436.172 457.38 435.946 457.486C435.719 457.593 435.446 457.686 435.126 457.766C434.806 457.846 434.459 457.886 434.086 457.886C433.699 457.886 433.332 457.813 432.986 457.666C432.652 457.52 432.386 457.3 432.186 457.006C431.986 456.7 431.886 456.326 431.886 455.886V448.426H430.446V447.346H431.886V443.826H433.246V447.346H435.646V448.426H433.246V455.506C433.272 455.88 433.406 456.16 433.646 456.346C433.899 456.533 434.186 456.626 434.506 456.626C434.879 456.626 435.219 456.566 435.526 456.446C435.832 456.313 436.019 456.22 436.086 456.166L436.446 457.266Z" fill="#404040"/>
<path d="M437.305 454.766C437.305 454.113 437.491 453.553 437.865 453.086C438.238 452.606 438.751 452.24 439.405 451.986C440.071 451.72 440.838 451.586 441.705 451.586C442.211 451.586 442.738 451.626 443.285 451.706C443.831 451.786 444.318 451.906 444.745 452.066V451.186C444.745 450.306 444.485 449.606 443.965 449.086C443.445 448.566 442.725 448.306 441.805 448.306C441.245 448.306 440.691 448.413 440.145 448.626C439.611 448.826 439.051 449.126 438.465 449.526L437.945 448.566C438.625 448.1 439.291 447.753 439.945 447.526C440.598 447.286 441.265 447.166 441.945 447.166C443.225 447.166 444.238 447.533 444.985 448.266C445.731 449 446.105 450.013 446.105 451.306V456.126C446.105 456.313 446.145 456.453 446.225 456.546C446.305 456.626 446.431 456.673 446.605 456.686V457.766C446.458 457.78 446.331 457.793 446.225 457.806C446.118 457.82 446.038 457.82 445.985 457.806C445.651 457.793 445.398 457.686 445.225 457.486C445.051 457.286 444.958 457.073 444.945 456.846L444.925 456.086C444.458 456.686 443.851 457.153 443.105 457.486C442.358 457.806 441.598 457.966 440.825 457.966C440.158 457.966 439.551 457.826 439.005 457.546C438.471 457.253 438.051 456.866 437.745 456.386C437.451 455.893 437.305 455.353 437.305 454.766ZM444.285 455.566C444.431 455.38 444.545 455.2 444.625 455.026C444.705 454.853 444.745 454.7 444.745 454.566V453.046C444.291 452.873 443.818 452.74 443.325 452.646C442.845 452.553 442.358 452.506 441.865 452.506C440.891 452.506 440.105 452.7 439.505 453.086C438.905 453.473 438.605 454 438.605 454.666C438.605 455.053 438.705 455.42 438.905 455.766C439.105 456.1 439.398 456.38 439.785 456.606C440.171 456.82 440.625 456.926 441.145 456.926C441.798 456.926 442.405 456.8 442.965 456.546C443.538 456.293 443.978 455.966 444.285 455.566Z" fill="#404040"/>
<path d="M452.463 457.966C451.61 457.966 450.817 457.826 450.083 457.546C449.35 457.266 448.717 456.84 448.183 456.266L448.743 455.306C449.33 455.853 449.917 456.253 450.503 456.506C451.103 456.746 451.737 456.866 452.403 456.866C453.217 456.866 453.877 456.706 454.383 456.386C454.89 456.053 455.143 455.58 455.143 454.966C455.143 454.553 455.017 454.24 454.763 454.026C454.523 453.8 454.17 453.62 453.703 453.486C453.25 453.34 452.703 453.186 452.063 453.026C451.343 452.826 450.737 452.62 450.243 452.406C449.763 452.18 449.397 451.9 449.143 451.566C448.903 451.22 448.783 450.773 448.783 450.226C448.783 449.546 448.95 448.986 449.283 448.546C449.63 448.093 450.097 447.753 450.683 447.526C451.283 447.286 451.95 447.166 452.683 447.166C453.483 447.166 454.19 447.293 454.803 447.546C455.417 447.8 455.917 448.153 456.303 448.606L455.643 449.526C455.27 449.1 454.823 448.786 454.303 448.586C453.797 448.373 453.23 448.266 452.603 448.266C452.177 448.266 451.77 448.326 451.383 448.446C450.997 448.553 450.677 448.74 450.423 449.006C450.183 449.26 450.063 449.613 450.063 450.066C450.063 450.44 450.157 450.733 450.343 450.946C450.53 451.146 450.81 451.32 451.183 451.466C451.557 451.6 452.017 451.746 452.563 451.906C453.35 452.12 454.037 452.34 454.623 452.566C455.21 452.78 455.663 453.06 455.983 453.406C456.303 453.753 456.463 454.24 456.463 454.866C456.463 455.84 456.097 456.6 455.363 457.146C454.63 457.693 453.663 457.966 452.463 457.966Z" fill="#404040"/>
<path d="M463.189 450.846C463.189 449.486 463.462 448.166 464.009 446.886C464.556 445.593 465.216 444.293 465.989 442.986L467.029 443.486C466.762 443.886 466.476 444.38 466.169 444.966C465.876 445.553 465.596 446.186 465.329 446.866C465.076 447.533 464.869 448.213 464.709 448.906C464.549 449.6 464.469 450.266 464.469 450.906C464.469 451.946 464.696 453.08 465.149 454.306C465.602 455.533 466.222 456.753 467.009 457.966L465.989 458.506C465.429 457.666 464.936 456.82 464.509 455.966C464.096 455.113 463.769 454.26 463.529 453.406C463.302 452.54 463.189 451.686 463.189 450.846Z" fill="#404040"/>
<path d="M473.289 457.966C472.543 457.966 471.849 457.826 471.209 457.546C470.569 457.253 470.016 456.86 469.549 456.366C469.083 455.86 468.716 455.28 468.449 454.626C468.196 453.973 468.069 453.273 468.069 452.526C468.069 451.553 468.289 450.66 468.729 449.846C469.183 449.033 469.803 448.386 470.589 447.906C471.376 447.413 472.269 447.166 473.269 447.166C474.296 447.166 475.189 447.413 475.949 447.906C476.723 448.4 477.329 449.053 477.769 449.866C478.209 450.666 478.429 451.546 478.429 452.506C478.429 452.613 478.429 452.72 478.429 452.826C478.429 452.92 478.423 452.993 478.409 453.046H469.489C469.556 453.793 469.763 454.46 470.109 455.046C470.469 455.62 470.929 456.08 471.489 456.426C472.063 456.76 472.683 456.926 473.349 456.926C474.029 456.926 474.669 456.753 475.269 456.406C475.883 456.06 476.309 455.606 476.549 455.046L477.729 455.366C477.516 455.86 477.189 456.306 476.749 456.706C476.309 457.106 475.789 457.42 475.189 457.646C474.603 457.86 473.969 457.966 473.289 457.966ZM469.449 452.066H477.149C477.096 451.306 476.889 450.64 476.529 450.066C476.183 449.493 475.723 449.046 475.149 448.726C474.589 448.393 473.969 448.226 473.289 448.226C472.609 448.226 471.989 448.393 471.429 448.726C470.869 449.046 470.409 449.5 470.049 450.086C469.703 450.66 469.503 451.32 469.449 452.066Z" fill="#404040"/>
<path d="M480.328 452.946V451.686H486.168V452.946H480.328Z" fill="#404040"/>
<path d="M493.485 457.966C492.725 457.966 492.025 457.826 491.385 457.546C490.758 457.253 490.205 456.853 489.725 456.346C489.258 455.84 488.892 455.26 488.625 454.606C488.372 453.953 488.245 453.26 488.245 452.526C488.245 451.54 488.465 450.64 488.905 449.826C489.345 449.013 489.958 448.366 490.745 447.886C491.532 447.406 492.438 447.166 493.465 447.166C494.438 447.166 495.298 447.393 496.045 447.846C496.792 448.286 497.345 448.886 497.705 449.646L496.385 450.066C496.092 449.533 495.678 449.12 495.145 448.826C494.625 448.52 494.045 448.366 493.405 448.366C492.712 448.366 492.078 448.546 491.505 448.906C490.932 449.266 490.472 449.76 490.125 450.386C489.792 451.013 489.625 451.726 489.625 452.526C489.625 453.313 489.798 454.026 490.145 454.666C490.492 455.306 490.952 455.82 491.525 456.206C492.098 456.58 492.732 456.766 493.425 456.766C493.878 456.766 494.312 456.686 494.725 456.526C495.152 456.366 495.518 456.153 495.825 455.886C496.145 455.606 496.358 455.306 496.465 454.986L497.805 455.386C497.618 455.88 497.305 456.326 496.865 456.726C496.438 457.113 495.932 457.42 495.345 457.646C494.772 457.86 494.152 457.966 493.485 457.966Z" fill="#404040"/>
<path d="M499.102 454.766C499.102 454.113 499.288 453.553 499.662 453.086C500.035 452.606 500.548 452.24 501.202 451.986C501.868 451.72 502.635 451.586 503.502 451.586C504.008 451.586 504.535 451.626 505.082 451.706C505.628 451.786 506.115 451.906 506.542 452.066V451.186C506.542 450.306 506.282 449.606 505.762 449.086C505.242 448.566 504.522 448.306 503.602 448.306C503.042 448.306 502.488 448.413 501.942 448.626C501.408 448.826 500.848 449.126 500.262 449.526L499.742 448.566C500.422 448.1 501.088 447.753 501.742 447.526C502.395 447.286 503.062 447.166 503.742 447.166C505.022 447.166 506.035 447.533 506.782 448.266C507.528 449 507.902 450.013 507.902 451.306V456.126C507.902 456.313 507.942 456.453 508.022 456.546C508.102 456.626 508.228 456.673 508.402 456.686V457.766C508.255 457.78 508.128 457.793 508.022 457.806C507.915 457.82 507.835 457.82 507.782 457.806C507.448 457.793 507.195 457.686 507.022 457.486C506.848 457.286 506.755 457.073 506.742 456.846L506.722 456.086C506.255 456.686 505.648 457.153 504.902 457.486C504.155 457.806 503.395 457.966 502.622 457.966C501.955 457.966 501.348 457.826 500.802 457.546C500.268 457.253 499.848 456.866 499.542 456.386C499.248 455.893 499.102 455.353 499.102 454.766ZM506.082 455.566C506.228 455.38 506.342 455.2 506.422 455.026C506.502 454.853 506.542 454.7 506.542 454.566V453.046C506.088 452.873 505.615 452.74 505.122 452.646C504.642 452.553 504.155 452.506 503.662 452.506C502.688 452.506 501.902 452.7 501.302 453.086C500.702 453.473 500.402 454 500.402 454.666C500.402 455.053 500.502 455.42 500.702 455.766C500.902 456.1 501.195 456.38 501.582 456.606C501.968 456.82 502.422 456.926 502.942 456.926C503.595 456.926 504.202 456.8 504.762 456.546C505.335 456.293 505.775 455.966 506.082 455.566Z" fill="#404040"/>
<path d="M515.36 457.966C514.6 457.966 513.9 457.826 513.26 457.546C512.633 457.253 512.08 456.853 511.6 456.346C511.133 455.84 510.767 455.26 510.5 454.606C510.247 453.953 510.12 453.26 510.12 452.526C510.12 451.54 510.34 450.64 510.78 449.826C511.22 449.013 511.833 448.366 512.62 447.886C513.407 447.406 514.313 447.166 515.34 447.166C516.313 447.166 517.173 447.393 517.92 447.846C518.667 448.286 519.22 448.886 519.58 449.646L518.26 450.066C517.967 449.533 517.553 449.12 517.02 448.826C516.5 448.52 515.92 448.366 515.28 448.366C514.587 448.366 513.953 448.546 513.38 448.906C512.807 449.266 512.347 449.76 512 450.386C511.667 451.013 511.5 451.726 511.5 452.526C511.5 453.313 511.673 454.026 512.02 454.666C512.367 455.306 512.827 455.82 513.4 456.206C513.973 456.58 514.607 456.766 515.3 456.766C515.753 456.766 516.187 456.686 516.6 456.526C517.027 456.366 517.393 456.153 517.7 455.886C518.02 455.606 518.233 455.306 518.34 454.986L519.68 455.386C519.493 455.88 519.18 456.326 518.74 456.726C518.313 457.113 517.807 457.42 517.22 457.646C516.647 457.86 516.027 457.966 515.36 457.966Z" fill="#404040"/>
<path d="M524.797 450.846C524.797 451.686 524.683 452.54 524.457 453.406C524.23 454.26 523.903 455.113 523.477 455.966C523.05 456.82 522.557 457.666 521.997 458.506L520.997 457.966C521.783 456.753 522.403 455.533 522.857 454.306C523.31 453.08 523.537 451.946 523.537 450.906C523.537 450.266 523.457 449.6 523.297 448.906C523.137 448.213 522.923 447.533 522.657 446.866C522.39 446.186 522.11 445.553 521.817 444.966C521.523 444.38 521.237 443.886 520.957 443.486L522.017 442.986C522.79 444.293 523.443 445.593 523.977 446.886C524.523 448.166 524.797 449.486 524.797 450.846Z" fill="#404040"/>
<rect x="293.635" y="253.059" width="1102.19" height="89.1012" rx="44.5506" stroke="#BFBFBF"/>
<rect x="619.478" y="407" width="358.207" height="90.1012" rx="45.0506" fill="#F2F2F2"/>
<path d="M732.668 443.567H733.848L739.748 457.767H738.268L736.428 453.327H730.048L728.228 457.767H726.728L732.668 443.567ZM736.108 452.227L733.248 445.207L730.348 452.227H736.108Z" fill="#404040"/>
<path d="M746.823 457.967C745.956 457.967 745.176 457.74 744.483 457.287C743.803 456.833 743.263 456.273 742.863 455.607V462.027H741.503V447.347H742.723V449.367C743.136 448.713 743.69 448.187 744.383 447.787C745.076 447.373 745.816 447.167 746.603 447.167C747.323 447.167 747.983 447.32 748.583 447.627C749.183 447.92 749.703 448.32 750.143 448.827C750.583 449.333 750.923 449.913 751.163 450.567C751.416 451.207 751.543 451.873 751.543 452.567C751.543 453.54 751.343 454.44 750.943 455.267C750.556 456.08 750.01 456.733 749.303 457.227C748.596 457.72 747.77 457.967 746.823 457.967ZM746.443 456.767C747.016 456.767 747.53 456.653 747.983 456.427C748.436 456.187 748.823 455.867 749.143 455.467C749.476 455.067 749.73 454.62 749.903 454.127C750.076 453.62 750.163 453.1 750.163 452.567C750.163 452.007 750.063 451.473 749.863 450.967C749.676 450.46 749.403 450.013 749.043 449.627C748.683 449.24 748.27 448.933 747.803 448.707C747.336 448.48 746.83 448.367 746.283 448.367C745.936 448.367 745.576 448.433 745.203 448.567C744.83 448.7 744.47 448.893 744.123 449.147C743.79 449.387 743.51 449.66 743.283 449.967C743.056 450.273 742.916 450.6 742.863 450.947V454.147C743.076 454.64 743.363 455.087 743.723 455.487C744.083 455.873 744.496 456.187 744.963 456.427C745.443 456.653 745.936 456.767 746.443 456.767Z" fill="#404040"/>
<path d="M753.747 453.467V447.347H755.107V453.227C755.107 454.413 755.307 455.3 755.707 455.887C756.12 456.473 756.727 456.767 757.527 456.767C758.06 456.767 758.574 456.653 759.067 456.427C759.574 456.187 760.02 455.853 760.407 455.427C760.794 454.987 761.087 454.48 761.287 453.907V447.347H762.647V456.127C762.647 456.313 762.687 456.453 762.767 456.547C762.847 456.627 762.967 456.673 763.127 456.687V457.767C762.967 457.78 762.84 457.787 762.747 457.787C762.654 457.8 762.567 457.807 762.487 457.807C762.22 457.78 761.987 457.673 761.787 457.487C761.6 457.3 761.5 457.073 761.487 456.807L761.447 455.407C760.994 456.207 760.374 456.833 759.587 457.287C758.814 457.74 757.974 457.967 757.067 457.967C755.974 457.967 755.147 457.587 754.587 456.827C754.027 456.067 753.747 454.947 753.747 453.467Z" fill="#404040"/>
<path d="M770.922 448.547C770.015 448.573 769.215 448.827 768.522 449.307C767.842 449.787 767.362 450.447 767.082 451.287V457.767H765.722V447.347H767.002V449.847C767.362 449.113 767.835 448.52 768.422 448.067C769.022 447.613 769.655 447.36 770.322 447.307C770.455 447.293 770.569 447.287 770.662 447.287C770.769 447.287 770.855 447.293 770.922 447.307V448.547Z" fill="#404040"/>
<path d="M771.855 454.767C771.855 454.113 772.041 453.553 772.415 453.087C772.788 452.607 773.301 452.24 773.955 451.987C774.621 451.72 775.388 451.587 776.255 451.587C776.761 451.587 777.288 451.627 777.835 451.707C778.381 451.787 778.868 451.907 779.295 452.067V451.187C779.295 450.307 779.035 449.607 778.515 449.087C777.995 448.567 777.275 448.307 776.355 448.307C775.795 448.307 775.241 448.413 774.695 448.627C774.161 448.827 773.601 449.127 773.015 449.527L772.495 448.567C773.175 448.1 773.841 447.753 774.495 447.527C775.148 447.287 775.815 447.167 776.495 447.167C777.775 447.167 778.788 447.533 779.535 448.267C780.281 449 780.655 450.013 780.655 451.307V456.127C780.655 456.313 780.695 456.453 780.775 456.547C780.855 456.627 780.981 456.673 781.155 456.687V457.767C781.008 457.78 780.881 457.793 780.775 457.807C780.668 457.82 780.588 457.82 780.535 457.807C780.201 457.793 779.948 457.687 779.775 457.487C779.601 457.287 779.508 457.073 779.495 456.847L779.475 456.087C779.008 456.687 778.401 457.153 777.655 457.487C776.908 457.807 776.148 457.967 775.375 457.967C774.708 457.967 774.101 457.827 773.555 457.547C773.021 457.253 772.601 456.867 772.295 456.387C772.001 455.893 771.855 455.353 771.855 454.767ZM778.835 455.567C778.981 455.38 779.095 455.2 779.175 455.027C779.255 454.853 779.295 454.7 779.295 454.567V453.047C778.841 452.873 778.368 452.74 777.875 452.647C777.395 452.553 776.908 452.507 776.415 452.507C775.441 452.507 774.655 452.7 774.055 453.087C773.455 453.473 773.155 454 773.155 454.667C773.155 455.053 773.255 455.42 773.455 455.767C773.655 456.1 773.948 456.38 774.335 456.607C774.721 456.82 775.175 456.927 775.695 456.927C776.348 456.927 776.955 456.8 777.515 456.547C778.088 456.293 778.528 455.967 778.835 455.567Z" fill="#404040"/>
<path d="M788.113 457.967C787.353 457.967 786.653 457.827 786.013 457.547C785.386 457.253 784.833 456.853 784.353 456.347C783.886 455.84 783.52 455.26 783.253 454.607C783 453.953 782.873 453.26 782.873 452.527C782.873 451.54 783.093 450.64 783.533 449.827C783.973 449.013 784.586 448.367 785.373 447.887C786.16 447.407 787.066 447.167 788.093 447.167C789.066 447.167 789.926 447.393 790.673 447.847C791.42 448.287 791.973 448.887 792.333 449.647L791.013 450.067C790.72 449.533 790.306 449.12 789.773 448.827C789.253 448.52 788.673 448.367 788.033 448.367C787.34 448.367 786.706 448.547 786.133 448.907C785.56 449.267 785.1 449.76 784.753 450.387C784.42 451.013 784.253 451.727 784.253 452.527C784.253 453.313 784.426 454.027 784.773 454.667C785.12 455.307 785.58 455.82 786.153 456.207C786.726 456.58 787.36 456.767 788.053 456.767C788.506 456.767 788.94 456.687 789.353 456.527C789.78 456.367 790.146 456.153 790.453 455.887C790.773 455.607 790.986 455.307 791.093 454.987L792.433 455.387C792.246 455.88 791.933 456.327 791.493 456.727C791.066 457.113 790.56 457.42 789.973 457.647C789.4 457.86 788.78 457.967 788.113 457.967ZM787.873 461.367C787.54 461.367 787.166 461.32 786.753 461.227C786.353 461.133 785.966 460.993 785.593 460.807L785.993 460.027C786.273 460.16 786.54 460.267 786.793 460.347C787.046 460.427 787.333 460.467 787.653 460.467C788.093 460.467 788.433 460.38 788.673 460.207C788.913 460.047 789.033 459.793 789.033 459.447C789.033 459.1 788.913 458.793 788.673 458.527C788.433 458.273 788.086 458.02 787.633 457.767L788.213 457.387C788.733 457.707 789.153 458.033 789.473 458.367C789.793 458.713 789.953 459.147 789.953 459.667C789.953 460.2 789.766 460.613 789.393 460.907C789.02 461.213 788.513 461.367 787.873 461.367Z" fill="#404040"/>
<path d="M793.73 454.767C793.73 454.113 793.916 453.553 794.29 453.087C794.663 452.607 795.176 452.24 795.83 451.987C796.496 451.72 797.263 451.587 798.13 451.587C798.636 451.587 799.163 451.627 799.71 451.707C800.256 451.787 800.743 451.907 801.17 452.067V451.187C801.17 450.307 800.91 449.607 800.39 449.087C799.87 448.567 799.15 448.307 798.23 448.307C797.67 448.307 797.116 448.413 796.57 448.627C796.036 448.827 795.476 449.127 794.89 449.527L794.37 448.567C795.05 448.1 795.716 447.753 796.37 447.527C797.023 447.287 797.69 447.167 798.37 447.167C799.65 447.167 800.663 447.533 801.41 448.267C802.156 449 802.53 450.013 802.53 451.307V456.127C802.53 456.313 802.57 456.453 802.65 456.547C802.73 456.627 802.856 456.673 803.03 456.687V457.767C802.883 457.78 802.756 457.793 802.65 457.807C802.543 457.82 802.463 457.82 802.41 457.807C802.076 457.793 801.823 457.687 801.65 457.487C801.476 457.287 801.383 457.073 801.37 456.847L801.35 456.087C800.883 456.687 800.276 457.153 799.53 457.487C798.783 457.807 798.023 457.967 797.25 457.967C796.583 457.967 795.976 457.827 795.43 457.547C794.896 457.253 794.476 456.867 794.17 456.387C793.876 455.893 793.73 455.353 793.73 454.767ZM800.71 455.567C800.856 455.38 800.97 455.2 801.05 455.027C801.13 454.853 801.17 454.7 801.17 454.567V453.047C800.716 452.873 800.243 452.74 799.75 452.647C799.27 452.553 798.783 452.507 798.29 452.507C797.316 452.507 796.53 452.7 795.93 453.087C795.33 453.473 795.03 454 795.03 454.667C795.03 455.053 795.13 455.42 795.33 455.767C795.53 456.1 795.823 456.38 796.21 456.607C796.596 456.82 797.05 456.927 797.57 456.927C798.223 456.927 798.83 456.8 799.39 456.547C799.963 456.293 800.403 455.967 800.71 455.567ZM799.55 445.007C799.15 445.007 798.81 444.94 798.53 444.807C798.25 444.673 797.996 444.54 797.77 444.407C797.543 444.273 797.283 444.207 796.99 444.207C796.696 444.207 796.476 444.28 796.33 444.427C796.196 444.56 796.103 444.707 796.05 444.867C796.01 445.027 795.99 445.127 795.99 445.167H795.15C795.15 445.1 795.17 444.967 795.21 444.767C795.263 444.567 795.356 444.36 795.49 444.147C795.623 443.92 795.803 443.727 796.03 443.567C796.27 443.393 796.583 443.307 796.97 443.307C797.343 443.307 797.656 443.38 797.91 443.527C798.176 443.66 798.43 443.8 798.67 443.947C798.923 444.08 799.21 444.147 799.53 444.147C799.876 444.147 800.13 444.073 800.29 443.927C800.45 443.767 800.55 443.607 800.59 443.447C800.643 443.287 800.67 443.193 800.67 443.167H801.51C801.51 443.233 801.483 443.367 801.43 443.567C801.376 443.753 801.276 443.96 801.13 444.187C800.996 444.413 800.796 444.607 800.53 444.767C800.276 444.927 799.95 445.007 799.55 445.007Z" fill="#404040"/>
<path d="M809.908 457.967C809.161 457.967 808.468 457.827 807.828 457.547C807.201 457.253 806.655 456.86 806.188 456.367C805.735 455.86 805.381 455.287 805.128 454.647C804.875 453.993 804.748 453.307 804.748 452.587C804.748 451.84 804.875 451.147 805.128 450.507C805.381 449.853 805.741 449.28 806.208 448.787C806.675 448.28 807.221 447.887 807.848 447.607C808.488 447.313 809.181 447.167 809.928 447.167C810.675 447.167 811.361 447.313 811.988 447.607C812.615 447.887 813.161 448.28 813.628 448.787C814.095 449.28 814.455 449.853 814.708 450.507C814.961 451.147 815.088 451.84 815.088 452.587C815.088 453.307 814.961 453.993 814.708 454.647C814.455 455.287 814.095 455.86 813.628 456.367C813.175 456.86 812.628 457.253 811.988 457.547C811.361 457.827 810.668 457.967 809.908 457.967ZM806.128 452.607C806.128 453.38 806.295 454.087 806.628 454.727C806.975 455.353 807.435 455.853 808.008 456.227C808.581 456.587 809.215 456.767 809.908 456.767C810.601 456.767 811.235 456.58 811.808 456.207C812.381 455.833 812.841 455.327 813.188 454.687C813.535 454.033 813.708 453.327 813.708 452.567C813.708 451.793 813.535 451.087 813.188 450.447C812.841 449.807 812.381 449.3 811.808 448.927C811.235 448.553 810.601 448.367 809.908 448.367C809.215 448.367 808.581 448.56 808.008 448.947C807.448 449.333 806.995 449.847 806.648 450.487C806.301 451.113 806.128 451.82 806.128 452.607Z" fill="#404040"/>
<path d="M821.76 452.587C821.76 451.6 821.96 450.7 822.36 449.887C822.774 449.06 823.34 448.4 824.06 447.907C824.78 447.413 825.6 447.167 826.52 447.167C827.387 447.167 828.16 447.4 828.84 447.867C829.534 448.32 830.074 448.873 830.46 449.527V443.167H831.82V456.127C831.82 456.313 831.86 456.453 831.94 456.547C832.02 456.627 832.14 456.673 832.3 456.687V457.767C832.034 457.807 831.827 457.82 831.68 457.807C831.4 457.793 831.154 457.68 830.94 457.467C830.727 457.253 830.62 457.02 830.62 456.767V455.747C830.207 456.427 829.647 456.967 828.94 457.367C828.234 457.767 827.5 457.967 826.74 457.967C826.02 457.967 825.354 457.82 824.74 457.527C824.14 457.233 823.614 456.833 823.16 456.327C822.72 455.82 822.374 455.247 822.12 454.607C821.88 453.953 821.76 453.28 821.76 452.587ZM830.46 454.187V450.967C830.287 450.487 830.007 450.053 829.62 449.667C829.234 449.267 828.794 448.953 828.3 448.727C827.82 448.487 827.34 448.367 826.86 448.367C826.3 448.367 825.794 448.487 825.34 448.727C824.887 448.953 824.494 449.267 824.16 449.667C823.84 450.067 823.594 450.52 823.42 451.027C823.247 451.533 823.16 452.053 823.16 452.587C823.16 453.147 823.254 453.68 823.44 454.187C823.64 454.693 823.92 455.147 824.28 455.547C824.64 455.933 825.054 456.233 825.52 456.447C825.987 456.66 826.494 456.767 827.04 456.767C827.387 456.767 827.747 456.7 828.12 456.567C828.494 456.433 828.847 456.253 829.18 456.027C829.527 455.787 829.814 455.507 830.04 455.187C830.267 454.867 830.407 454.533 830.46 454.187Z" fill="#404040"/>
<path d="M839.402 457.967C838.655 457.967 837.962 457.827 837.322 457.547C836.682 457.253 836.128 456.86 835.662 456.367C835.195 455.86 834.828 455.28 834.562 454.627C834.308 453.973 834.182 453.273 834.182 452.527C834.182 451.553 834.402 450.66 834.842 449.847C835.295 449.033 835.915 448.387 836.702 447.907C837.488 447.413 838.382 447.167 839.382 447.167C840.408 447.167 841.302 447.413 842.062 447.907C842.835 448.4 843.442 449.053 843.882 449.867C844.322 450.667 844.542 451.547 844.542 452.507C844.542 452.613 844.542 452.72 844.542 452.827C844.542 452.92 844.535 452.993 844.522 453.047H835.602C835.668 453.793 835.875 454.46 836.222 455.047C836.582 455.62 837.042 456.08 837.602 456.427C838.175 456.76 838.795 456.927 839.462 456.927C840.142 456.927 840.782 456.753 841.382 456.407C841.995 456.06 842.422 455.607 842.662 455.047L843.842 455.367C843.628 455.86 843.302 456.307 842.862 456.707C842.422 457.107 841.902 457.42 841.302 457.647C840.715 457.86 840.082 457.967 839.402 457.967ZM835.562 452.067H843.262C843.208 451.307 843.002 450.64 842.642 450.067C842.295 449.493 841.835 449.047 841.262 448.727C840.702 448.393 840.082 448.227 839.402 448.227C838.722 448.227 838.102 448.393 837.542 448.727C836.982 449.047 836.522 449.5 836.162 450.087C835.815 450.66 835.615 451.32 835.562 452.067Z" fill="#404040"/>
<path d="M856.258 457.967C855.498 457.967 854.798 457.827 854.158 457.547C853.531 457.253 852.978 456.853 852.498 456.347C852.031 455.84 851.664 455.26 851.398 454.607C851.144 453.953 851.018 453.26 851.018 452.527C851.018 451.54 851.238 450.64 851.678 449.827C852.118 449.013 852.731 448.367 853.518 447.887C854.304 447.407 855.211 447.167 856.238 447.167C857.211 447.167 858.071 447.393 858.818 447.847C859.564 448.287 860.118 448.887 860.478 449.647L859.158 450.067C858.864 449.533 858.451 449.12 857.918 448.827C857.398 448.52 856.818 448.367 856.178 448.367C855.484 448.367 854.851 448.547 854.278 448.907C853.704 449.267 853.244 449.76 852.898 450.387C852.564 451.013 852.398 451.727 852.398 452.527C852.398 453.313 852.571 454.027 852.918 454.667C853.264 455.307 853.724 455.82 854.298 456.207C854.871 456.58 855.504 456.767 856.198 456.767C856.651 456.767 857.084 456.687 857.498 456.527C857.924 456.367 858.291 456.153 858.598 455.887C858.918 455.607 859.131 455.307 859.238 454.987L860.578 455.387C860.391 455.88 860.078 456.327 859.638 456.727C859.211 457.113 858.704 457.42 858.118 457.647C857.544 457.86 856.924 457.967 856.258 457.967Z" fill="#404040"/>
<path d="M867.914 448.547C867.007 448.573 866.207 448.827 865.514 449.307C864.834 449.787 864.354 450.447 864.074 451.287V457.767H862.714V447.347H863.994V449.847C864.354 449.113 864.827 448.52 865.414 448.067C866.014 447.613 866.647 447.36 867.314 447.307C867.447 447.293 867.561 447.287 867.654 447.287C867.761 447.287 867.847 447.293 867.914 447.307V448.547Z" fill="#404040"/>
<path d="M873.894 457.967C873.147 457.967 872.454 457.827 871.814 457.547C871.174 457.253 870.62 456.86 870.154 456.367C869.687 455.86 869.32 455.28 869.054 454.627C868.8 453.973 868.674 453.273 868.674 452.527C868.674 451.553 868.894 450.66 869.334 449.847C869.787 449.033 870.407 448.387 871.194 447.907C871.98 447.413 872.874 447.167 873.874 447.167C874.9 447.167 875.794 447.413 876.554 447.907C877.327 448.4 877.934 449.053 878.374 449.867C878.814 450.667 879.034 451.547 879.034 452.507C879.034 452.613 879.034 452.72 879.034 452.827C879.034 452.92 879.027 452.993 879.014 453.047H870.094C870.16 453.793 870.367 454.46 870.714 455.047C871.074 455.62 871.534 456.08 872.094 456.427C872.667 456.76 873.287 456.927 873.954 456.927C874.634 456.927 875.274 456.753 875.874 456.407C876.487 456.06 876.914 455.607 877.154 455.047L878.334 455.367C878.12 455.86 877.794 456.307 877.354 456.707C876.914 457.107 876.394 457.42 875.794 457.647C875.207 457.86 874.574 457.967 873.894 457.967ZM870.054 452.067H877.754C877.7 451.307 877.494 450.64 877.134 450.067C876.787 449.493 876.327 449.047 875.754 448.727C875.194 448.393 874.574 448.227 873.894 448.227C873.214 448.227 872.594 448.393 872.034 448.727C871.474 449.047 871.014 449.5 870.654 450.087C870.307 450.66 870.107 451.32 870.054 452.067ZM874.294 445.367L873.394 445.027L874.574 443.167H876.014L874.294 445.367Z" fill="#404040"/>
<path d="M880.432 452.587C880.432 451.6 880.632 450.7 881.032 449.887C881.445 449.06 882.012 448.4 882.732 447.907C883.452 447.413 884.272 447.167 885.192 447.167C886.059 447.167 886.832 447.4 887.512 447.867C888.205 448.32 888.745 448.873 889.132 449.527V443.167H890.492V456.127C890.492 456.313 890.532 456.453 890.612 456.547C890.692 456.627 890.812 456.673 890.972 456.687V457.767C890.705 457.807 890.499 457.82 890.352 457.807C890.072 457.793 889.825 457.68 889.612 457.467C889.399 457.253 889.292 457.02 889.292 456.767V455.747C888.879 456.427 888.319 456.967 887.612 457.367C886.905 457.767 886.172 457.967 885.412 457.967C884.692 457.967 884.025 457.82 883.412 457.527C882.812 457.233 882.285 456.833 881.832 456.327C881.392 455.82 881.045 455.247 880.792 454.607C880.552 453.953 880.432 453.28 880.432 452.587ZM889.132 454.187V450.967C888.959 450.487 888.679 450.053 888.292 449.667C887.905 449.267 887.465 448.953 886.972 448.727C886.492 448.487 886.012 448.367 885.532 448.367C884.972 448.367 884.465 448.487 884.012 448.727C883.559 448.953 883.165 449.267 882.832 449.667C882.512 450.067 882.265 450.52 882.092 451.027C881.919 451.533 881.832 452.053 881.832 452.587C881.832 453.147 881.925 453.68 882.112 454.187C882.312 454.693 882.592 455.147 882.952 455.547C883.312 455.933 883.725 456.233 884.192 456.447C884.659 456.66 885.165 456.767 885.712 456.767C886.059 456.767 886.419 456.7 886.792 456.567C887.165 456.433 887.519 456.253 887.852 456.027C888.199 455.787 888.485 455.507 888.712 455.187C888.939 454.867 889.079 454.533 889.132 454.187Z" fill="#404040"/>
<path d="M893.573 457.767V447.347H894.933V457.767H893.573ZM893.573 445.167V443.167H894.933V445.167H893.573Z" fill="#404040"/>
<path d="M902.929 457.267C902.822 457.307 902.656 457.38 902.429 457.487C902.202 457.593 901.929 457.687 901.609 457.767C901.289 457.847 900.942 457.887 900.569 457.887C900.182 457.887 899.816 457.813 899.469 457.667C899.136 457.52 898.869 457.3 898.669 457.007C898.469 456.7 898.369 456.327 898.369 455.887V448.427H896.929V447.347H898.369V443.827H899.729V447.347H902.129V448.427H899.729V455.507C899.756 455.88 899.889 456.16 900.129 456.347C900.382 456.533 900.669 456.627 900.989 456.627C901.362 456.627 901.702 456.567 902.009 456.447C902.316 456.313 902.502 456.22 902.569 456.167L902.929 457.267Z" fill="#404040"/>
<path d="M908.892 457.967C908.146 457.967 907.452 457.827 906.812 457.547C906.186 457.253 905.639 456.86 905.172 456.367C904.719 455.86 904.366 455.287 904.112 454.647C903.859 453.993 903.732 453.307 903.732 452.587C903.732 451.84 903.859 451.147 904.112 450.507C904.366 449.853 904.726 449.28 905.192 448.787C905.659 448.28 906.206 447.887 906.832 447.607C907.472 447.313 908.166 447.167 908.912 447.167C909.659 447.167 910.346 447.313 910.972 447.607C911.599 447.887 912.146 448.28 912.612 448.787C913.079 449.28 913.439 449.853 913.692 450.507C913.946 451.147 914.072 451.84 914.072 452.587C914.072 453.307 913.946 453.993 913.692 454.647C913.439 455.287 913.079 455.86 912.612 456.367C912.159 456.86 911.612 457.253 910.972 457.547C910.346 457.827 909.652 457.967 908.892 457.967ZM905.112 452.607C905.112 453.38 905.279 454.087 905.612 454.727C905.959 455.353 906.419 455.853 906.992 456.227C907.566 456.587 908.199 456.767 908.892 456.767C909.586 456.767 910.219 456.58 910.792 456.207C911.366 455.833 911.826 455.327 912.172 454.687C912.519 454.033 912.692 453.327 912.692 452.567C912.692 451.793 912.519 451.087 912.172 450.447C911.826 449.807 911.366 449.3 910.792 448.927C910.219 448.553 909.586 448.367 908.892 448.367C908.199 448.367 907.566 448.56 906.992 448.947C906.432 449.333 905.979 449.847 905.632 450.487C905.286 451.113 905.112 451.82 905.112 452.607Z" fill="#404040"/>
<path d="M919.767 457.967C918.914 457.967 918.12 457.827 917.387 457.547C916.654 457.267 916.02 456.84 915.487 456.267L916.047 455.307C916.634 455.853 917.22 456.253 917.807 456.507C918.407 456.747 919.04 456.867 919.707 456.867C920.52 456.867 921.18 456.707 921.687 456.387C922.194 456.053 922.447 455.58 922.447 454.967C922.447 454.553 922.32 454.24 922.067 454.027C921.827 453.8 921.474 453.62 921.007 453.487C920.554 453.34 920.007 453.187 919.367 453.027C918.647 452.827 918.04 452.62 917.547 452.407C917.067 452.18 916.7 451.9 916.447 451.567C916.207 451.22 916.087 450.773 916.087 450.227C916.087 449.547 916.254 448.987 916.587 448.547C916.934 448.093 917.4 447.753 917.987 447.527C918.587 447.287 919.254 447.167 919.987 447.167C920.787 447.167 921.494 447.293 922.107 447.547C922.72 447.8 923.22 448.153 923.607 448.607L922.947 449.527C922.574 449.1 922.127 448.787 921.607 448.587C921.1 448.373 920.534 448.267 919.907 448.267C919.48 448.267 919.074 448.327 918.687 448.447C918.3 448.553 917.98 448.74 917.727 449.007C917.487 449.26 917.367 449.613 917.367 450.067C917.367 450.44 917.46 450.733 917.647 450.947C917.834 451.147 918.114 451.32 918.487 451.467C918.86 451.6 919.32 451.747 919.867 451.907C920.654 452.12 921.34 452.34 921.927 452.567C922.514 452.78 922.967 453.06 923.287 453.407C923.607 453.753 923.767 454.24 923.767 454.867C923.767 455.84 923.4 456.6 922.667 457.147C921.934 457.693 920.967 457.967 919.767 457.967Z" fill="#404040"/>
<g opacity="0.4">
<path d="M664.662 455.966C664.662 457.831 666.104 459.331 667.873 459.331H671.488C673.027 459.331 674.277 458.023 674.277 456.389C674.277 454.639 673.507 454.005 672.373 453.601L666.585 451.582C665.45 451.178 664.681 450.563 664.681 448.794C664.681 447.178 665.931 445.852 667.47 445.852H671.085C672.854 445.852 674.296 447.351 674.296 449.217" stroke="#0F1D4B" stroke-width="2" stroke-linecap="round" stroke-linejoin="round"/>
<path d="M669.472 443.949V461.255" stroke="#0F1D4B" stroke-width="2" stroke-linecap="round" stroke-linejoin="round"/>
</g>
<path d="M688.701 452.6C688.701 463.214 680.086 471.829 669.472 471.829C658.858 471.829 650.243 463.214 650.243 452.6C650.243 441.986 658.858 433.371 669.472 433.371" stroke="#0F1D4B" stroke-width="2" stroke-linecap="round" stroke-linejoin="round"/>
<path d="M679.086 435.291V442.982H686.778" stroke="#0F1D4B" stroke-width="2" stroke-linecap="round" stroke-linejoin="round"/>
<path d="M688.7 433.371L679.086 442.986" stroke="#0F1D4B" stroke-width="2" stroke-linecap="round" stroke-linejoin="round"/>
<rect x="1015.04" y="407" width="381.282" height="90.1012" rx="45.0506" fill="#F2F2F2"/>
<path d="M1108.12 457.766V443.566H1112.94C1114.45 443.566 1115.7 443.886 1116.7 444.526C1117.71 445.153 1118.47 446.006 1118.98 447.086C1119.49 448.153 1119.74 449.34 1119.74 450.646C1119.74 452.086 1119.46 453.34 1118.9 454.406C1118.35 455.473 1117.57 456.3 1116.54 456.886C1115.53 457.473 1114.33 457.766 1112.94 457.766H1108.12ZM1118.34 450.646C1118.34 449.513 1118.13 448.506 1117.7 447.626C1117.29 446.746 1116.68 446.06 1115.88 445.566C1115.08 445.06 1114.1 444.806 1112.94 444.806H1109.52V456.526H1112.94C1114.11 456.526 1115.1 456.266 1115.9 455.746C1116.7 455.226 1117.31 454.526 1117.72 453.646C1118.13 452.753 1118.34 451.753 1118.34 450.646Z" fill="#404040"/>
<path d="M1121.22 454.766C1121.22 454.113 1121.41 453.553 1121.78 453.086C1122.15 452.606 1122.67 452.24 1123.32 451.986C1123.99 451.72 1124.75 451.586 1125.62 451.586C1126.13 451.586 1126.65 451.626 1127.2 451.706C1127.75 451.786 1128.23 451.906 1128.66 452.066V451.186C1128.66 450.306 1128.4 449.606 1127.88 449.086C1127.36 448.566 1126.64 448.306 1125.72 448.306C1125.16 448.306 1124.61 448.413 1124.06 448.626C1123.53 448.826 1122.97 449.126 1122.38 449.526L1121.86 448.566C1122.54 448.1 1123.21 447.753 1123.86 447.526C1124.51 447.286 1125.18 447.166 1125.86 447.166C1127.14 447.166 1128.15 447.533 1128.9 448.266C1129.65 449 1130.02 450.013 1130.02 451.306V456.126C1130.02 456.313 1130.06 456.453 1130.14 456.546C1130.22 456.626 1130.35 456.673 1130.52 456.686V457.766C1130.37 457.78 1130.25 457.793 1130.14 457.806C1130.03 457.82 1129.95 457.82 1129.9 457.806C1129.57 457.793 1129.31 457.686 1129.14 457.486C1128.97 457.286 1128.87 457.073 1128.86 456.846L1128.84 456.086C1128.37 456.686 1127.77 457.153 1127.02 457.486C1126.27 457.806 1125.51 457.966 1124.74 457.966C1124.07 457.966 1123.47 457.826 1122.92 457.546C1122.39 457.253 1121.97 456.866 1121.66 456.386C1121.37 455.893 1121.22 455.353 1121.22 454.766ZM1128.2 455.566C1128.35 455.38 1128.46 455.2 1128.54 455.026C1128.62 454.853 1128.66 454.7 1128.66 454.566V453.046C1128.21 452.873 1127.73 452.74 1127.24 452.646C1126.76 452.553 1126.27 452.506 1125.78 452.506C1124.81 452.506 1124.02 452.7 1123.42 453.086C1122.82 453.473 1122.52 454 1122.52 454.666C1122.52 455.053 1122.62 455.42 1122.82 455.766C1123.02 456.1 1123.31 456.38 1123.7 456.606C1124.09 456.82 1124.54 456.926 1125.06 456.926C1125.71 456.926 1126.32 456.8 1126.88 456.546C1127.45 456.293 1127.89 455.966 1128.2 455.566Z" fill="#404040"/>
<path d="M1132.26 452.586C1132.26 451.6 1132.46 450.7 1132.86 449.886C1133.27 449.06 1133.84 448.4 1134.56 447.906C1135.28 447.413 1136.1 447.166 1137.02 447.166C1137.88 447.166 1138.66 447.4 1139.34 447.866C1140.03 448.32 1140.57 448.873 1140.96 449.526V443.166H1142.32V456.126C1142.32 456.313 1142.36 456.453 1142.44 456.546C1142.52 456.626 1142.64 456.673 1142.8 456.686V457.766C1142.53 457.806 1142.32 457.82 1142.18 457.806C1141.9 457.793 1141.65 457.68 1141.44 457.466C1141.22 457.253 1141.12 457.02 1141.12 456.766V455.746C1140.7 456.426 1140.14 456.966 1139.44 457.366C1138.73 457.766 1138 457.966 1137.24 457.966C1136.52 457.966 1135.85 457.82 1135.24 457.526C1134.64 457.233 1134.11 456.833 1133.66 456.326C1133.22 455.82 1132.87 455.246 1132.62 454.606C1132.38 453.953 1132.26 453.28 1132.26 452.586ZM1140.96 454.186V450.966C1140.78 450.486 1140.5 450.053 1140.12 449.666C1139.73 449.266 1139.29 448.953 1138.8 448.726C1138.32 448.486 1137.84 448.366 1137.36 448.366C1136.8 448.366 1136.29 448.486 1135.84 448.726C1135.38 448.953 1134.99 449.266 1134.66 449.666C1134.34 450.066 1134.09 450.52 1133.92 451.026C1133.74 451.533 1133.66 452.053 1133.66 452.586C1133.66 453.146 1133.75 453.68 1133.94 454.186C1134.14 454.693 1134.42 455.146 1134.78 455.546C1135.14 455.933 1135.55 456.233 1136.02 456.446C1136.48 456.66 1136.99 456.766 1137.54 456.766C1137.88 456.766 1138.24 456.7 1138.62 456.566C1138.99 456.433 1139.34 456.253 1139.68 456.026C1140.02 455.786 1140.31 455.506 1140.54 455.186C1140.76 454.866 1140.9 454.533 1140.96 454.186Z" fill="#404040"/>
<path d="M1149.84 457.966C1149.09 457.966 1148.4 457.826 1147.76 457.546C1147.13 457.253 1146.59 456.86 1146.12 456.366C1145.67 455.86 1145.31 455.286 1145.06 454.646C1144.81 453.993 1144.68 453.306 1144.68 452.586C1144.68 451.84 1144.81 451.146 1145.06 450.506C1145.31 449.853 1145.67 449.28 1146.14 448.786C1146.61 448.28 1147.15 447.886 1147.78 447.606C1148.42 447.313 1149.11 447.166 1149.86 447.166C1150.61 447.166 1151.29 447.313 1151.92 447.606C1152.55 447.886 1153.09 448.28 1153.56 448.786C1154.03 449.28 1154.39 449.853 1154.64 450.506C1154.89 451.146 1155.02 451.84 1155.02 452.586C1155.02 453.306 1154.89 453.993 1154.64 454.646C1154.39 455.286 1154.03 455.86 1153.56 456.366C1153.11 456.86 1152.56 457.253 1151.92 457.546C1151.29 457.826 1150.6 457.966 1149.84 457.966ZM1146.06 452.606C1146.06 453.38 1146.23 454.086 1146.56 454.726C1146.91 455.353 1147.37 455.853 1147.94 456.226C1148.51 456.586 1149.15 456.766 1149.84 456.766C1150.53 456.766 1151.17 456.58 1151.74 456.206C1152.31 455.833 1152.77 455.326 1153.12 454.686C1153.47 454.033 1153.64 453.326 1153.64 452.566C1153.64 451.793 1153.47 451.086 1153.12 450.446C1152.77 449.806 1152.31 449.3 1151.74 448.926C1151.17 448.553 1150.53 448.366 1149.84 448.366C1149.15 448.366 1148.51 448.56 1147.94 448.946C1147.38 449.333 1146.93 449.846 1146.58 450.486C1146.23 451.113 1146.06 451.82 1146.06 452.606Z" fill="#404040"/>
<path d="M1160.71 457.966C1159.86 457.966 1159.07 457.826 1158.33 457.546C1157.6 457.266 1156.97 456.84 1156.43 456.266L1156.99 455.306C1157.58 455.853 1158.17 456.253 1158.75 456.506C1159.35 456.746 1159.99 456.866 1160.65 456.866C1161.47 456.866 1162.13 456.706 1162.63 456.386C1163.14 456.053 1163.39 455.58 1163.39 454.966C1163.39 454.553 1163.27 454.24 1163.01 454.026C1162.77 453.8 1162.42 453.62 1161.95 453.486C1161.5 453.34 1160.95 453.186 1160.31 453.026C1159.59 452.826 1158.99 452.62 1158.49 452.406C1158.01 452.18 1157.65 451.9 1157.39 451.566C1157.15 451.22 1157.03 450.773 1157.03 450.226C1157.03 449.546 1157.2 448.986 1157.53 448.546C1157.88 448.093 1158.35 447.753 1158.93 447.526C1159.53 447.286 1160.2 447.166 1160.93 447.166C1161.73 447.166 1162.44 447.293 1163.05 447.546C1163.67 447.8 1164.17 448.153 1164.55 448.606L1163.89 449.526C1163.52 449.1 1163.07 448.786 1162.55 448.586C1162.05 448.373 1161.48 448.266 1160.85 448.266C1160.43 448.266 1160.02 448.326 1159.63 448.446C1159.25 448.553 1158.93 448.74 1158.67 449.006C1158.43 449.26 1158.31 449.613 1158.31 450.066C1158.31 450.44 1158.41 450.733 1158.59 450.946C1158.78 451.146 1159.06 451.32 1159.43 451.466C1159.81 451.6 1160.27 451.746 1160.81 451.906C1161.6 452.12 1162.29 452.34 1162.87 452.566C1163.46 452.78 1163.91 453.06 1164.23 453.406C1164.55 453.753 1164.71 454.24 1164.71 454.866C1164.71 455.84 1164.35 456.6 1163.61 457.146C1162.88 457.693 1161.91 457.966 1160.71 457.966Z" fill="#404040"/>
<path d="M1172.34 457.766V443.566H1181.66V444.806H1173.74V450.026H1180.42V451.186H1173.74V457.766H1172.34Z" fill="#404040"/>
<path d="M1183.84 457.766V447.346H1185.2V457.766H1183.84ZM1183.84 445.166V443.166H1185.2V445.166H1183.84Z" fill="#404040"/>
<path d="M1196.95 457.766H1195.59V451.946C1195.59 450.72 1195.41 449.826 1195.05 449.266C1194.69 448.693 1194.13 448.406 1193.35 448.406C1192.82 448.406 1192.29 448.54 1191.77 448.806C1191.25 449.06 1190.79 449.413 1190.39 449.866C1190.01 450.306 1189.73 450.813 1189.55 451.386V457.766H1188.19V447.346H1189.43V449.706C1189.71 449.2 1190.08 448.76 1190.53 448.386C1190.99 448 1191.5 447.7 1192.07 447.486C1192.65 447.273 1193.24 447.166 1193.85 447.166C1194.43 447.166 1194.91 447.273 1195.31 447.486C1195.71 447.7 1196.03 448.006 1196.27 448.406C1196.51 448.793 1196.69 449.266 1196.79 449.826C1196.9 450.373 1196.95 450.986 1196.95 451.666V457.766Z" fill="#404040"/>
<path d="M1199.01 454.766C1199.01 454.113 1199.2 453.553 1199.57 453.086C1199.95 452.606 1200.46 452.24 1201.11 451.986C1201.78 451.72 1202.55 451.586 1203.41 451.586C1203.92 451.586 1204.45 451.626 1204.99 451.706C1205.54 451.786 1206.03 451.906 1206.45 452.066V451.186C1206.45 450.306 1206.19 449.606 1205.67 449.086C1205.15 448.566 1204.43 448.306 1203.51 448.306C1202.95 448.306 1202.4 448.413 1201.85 448.626C1201.32 448.826 1200.76 449.126 1200.17 449.526L1199.65 448.566C1200.33 448.1 1201 447.753 1201.65 447.526C1202.31 447.286 1202.97 447.166 1203.65 447.166C1204.93 447.166 1205.95 447.533 1206.69 448.266C1207.44 449 1207.81 450.013 1207.81 451.306V456.126C1207.81 456.313 1207.85 456.453 1207.93 456.546C1208.01 456.626 1208.14 456.673 1208.31 456.686V457.766C1208.17 457.78 1208.04 457.793 1207.93 457.806C1207.83 457.82 1207.75 457.82 1207.69 457.806C1207.36 457.793 1207.11 457.686 1206.93 457.486C1206.76 457.286 1206.67 457.073 1206.65 456.846L1206.63 456.086C1206.17 456.686 1205.56 457.153 1204.81 457.486C1204.07 457.806 1203.31 457.966 1202.53 457.966C1201.87 457.966 1201.26 457.826 1200.71 457.546C1200.18 457.253 1199.76 456.866 1199.45 456.386C1199.16 455.893 1199.01 455.353 1199.01 454.766ZM1205.99 455.566C1206.14 455.38 1206.25 455.2 1206.33 455.026C1206.41 454.853 1206.45 454.7 1206.45 454.566V453.046C1206 452.873 1205.53 452.74 1205.03 452.646C1204.55 452.553 1204.07 452.506 1203.57 452.506C1202.6 452.506 1201.81 452.7 1201.21 453.086C1200.61 453.473 1200.31 454 1200.31 454.666C1200.31 455.053 1200.41 455.42 1200.61 455.766C1200.81 456.1 1201.11 456.38 1201.49 456.606C1201.88 456.82 1202.33 456.926 1202.85 456.926C1203.51 456.926 1204.11 456.8 1204.67 456.546C1205.25 456.293 1205.69 455.966 1205.99 455.566Z" fill="#404040"/>
<path d="M1219.51 457.766H1218.15V451.946C1218.15 450.72 1217.97 449.826 1217.61 449.266C1217.25 448.693 1216.68 448.406 1215.91 448.406C1215.38 448.406 1214.85 448.54 1214.33 448.806C1213.81 449.06 1213.35 449.413 1212.95 449.866C1212.56 450.306 1212.28 450.813 1212.11 451.386V457.766H1210.75V447.346H1211.99V449.706C1212.27 449.2 1212.64 448.76 1213.09 448.386C1213.54 448 1214.06 447.7 1214.63 447.486C1215.2 447.273 1215.8 447.166 1216.41 447.166C1216.98 447.166 1217.47 447.273 1217.87 447.486C1218.27 447.7 1218.59 448.006 1218.83 448.406C1219.07 448.793 1219.24 449.266 1219.35 449.826C1219.46 450.373 1219.51 450.986 1219.51 451.666V457.766Z" fill="#404040"/>
<path d="M1226.93 457.966C1226.17 457.966 1225.47 457.826 1224.83 457.546C1224.2 457.253 1223.65 456.853 1223.17 456.346C1222.7 455.84 1222.34 455.26 1222.07 454.606C1221.82 453.953 1221.69 453.26 1221.69 452.526C1221.69 451.54 1221.91 450.64 1222.35 449.826C1222.79 449.013 1223.4 448.366 1224.19 447.886C1224.98 447.406 1225.88 447.166 1226.91 447.166C1227.88 447.166 1228.74 447.393 1229.49 447.846C1230.24 448.286 1230.79 448.886 1231.15 449.646L1229.83 450.066C1229.54 449.533 1229.12 449.12 1228.59 448.826C1228.07 448.52 1227.49 448.366 1226.85 448.366C1226.16 448.366 1225.52 448.546 1224.95 448.906C1224.38 449.266 1223.92 449.76 1223.57 450.386C1223.24 451.013 1223.07 451.726 1223.07 452.526C1223.07 453.313 1223.24 454.026 1223.59 454.666C1223.94 455.306 1224.4 455.82 1224.97 456.206C1225.54 456.58 1226.18 456.766 1226.87 456.766C1227.32 456.766 1227.76 456.686 1228.17 456.526C1228.6 456.366 1228.96 456.153 1229.27 455.886C1229.59 455.606 1229.8 455.306 1229.91 454.986L1231.25 455.386C1231.06 455.88 1230.75 456.326 1230.31 456.726C1229.88 457.113 1229.38 457.42 1228.79 457.646C1228.22 457.86 1227.6 457.966 1226.93 457.966Z" fill="#404040"/>
<path d="M1237.79 457.966C1237.04 457.966 1236.35 457.826 1235.71 457.546C1235.07 457.253 1234.52 456.86 1234.05 456.366C1233.58 455.86 1233.22 455.28 1232.95 454.626C1232.7 453.973 1232.57 453.273 1232.57 452.526C1232.57 451.553 1232.79 450.66 1233.23 449.846C1233.68 449.033 1234.3 448.386 1235.09 447.906C1235.88 447.413 1236.77 447.166 1237.77 447.166C1238.8 447.166 1239.69 447.413 1240.45 447.906C1241.22 448.4 1241.83 449.053 1242.27 449.866C1242.71 450.666 1242.93 451.546 1242.93 452.506C1242.93 452.613 1242.93 452.72 1242.93 452.826C1242.93 452.92 1242.92 452.993 1242.91 453.046H1233.99C1234.06 453.793 1234.26 454.46 1234.61 455.046C1234.97 455.62 1235.43 456.08 1235.99 456.426C1236.56 456.76 1237.18 456.926 1237.85 456.926C1238.53 456.926 1239.17 456.753 1239.77 456.406C1240.38 456.06 1240.81 455.606 1241.05 455.046L1242.23 455.366C1242.02 455.86 1241.69 456.306 1241.25 456.706C1240.81 457.106 1240.29 457.42 1239.69 457.646C1239.1 457.86 1238.47 457.966 1237.79 457.966ZM1233.95 452.066H1241.65C1241.6 451.306 1241.39 450.64 1241.03 450.066C1240.68 449.493 1240.22 449.046 1239.65 448.726C1239.09 448.393 1238.47 448.226 1237.79 448.226C1237.11 448.226 1236.49 448.393 1235.93 448.726C1235.37 449.046 1234.91 449.5 1234.55 450.086C1234.2 450.66 1234 451.32 1233.95 452.066Z" fill="#404040"/>
<path d="M1245.03 457.766V447.346H1246.39V457.766H1245.03ZM1245.03 445.166V443.166H1246.39V445.166H1245.03Z" fill="#404040"/>
<path d="M1254.58 448.546C1253.68 448.573 1252.88 448.826 1252.18 449.306C1251.5 449.786 1251.02 450.446 1250.74 451.286V457.766H1249.38V447.346H1250.66V449.846C1251.02 449.113 1251.5 448.52 1252.08 448.066C1252.68 447.613 1253.32 447.36 1253.98 447.306C1254.12 447.293 1254.23 447.286 1254.32 447.286C1254.43 447.286 1254.52 447.293 1254.58 447.306V448.546Z" fill="#404040"/>
<path d="M1260.5 457.966C1259.76 457.966 1259.06 457.826 1258.42 457.546C1257.8 457.253 1257.25 456.86 1256.78 456.366C1256.33 455.86 1255.98 455.286 1255.72 454.646C1255.47 453.993 1255.34 453.306 1255.34 452.586C1255.34 451.84 1255.47 451.146 1255.72 450.506C1255.98 449.853 1256.34 449.28 1256.8 448.786C1257.27 448.28 1257.82 447.886 1258.44 447.606C1259.08 447.313 1259.78 447.166 1260.52 447.166C1261.27 447.166 1261.96 447.313 1262.58 447.606C1263.21 447.886 1263.76 448.28 1264.22 448.786C1264.69 449.28 1265.05 449.853 1265.3 450.506C1265.56 451.146 1265.68 451.84 1265.68 452.586C1265.68 453.306 1265.56 453.993 1265.3 454.646C1265.05 455.286 1264.69 455.86 1264.22 456.366C1263.77 456.86 1263.22 457.253 1262.58 457.546C1261.96 457.826 1261.26 457.966 1260.5 457.966ZM1256.72 452.606C1256.72 453.38 1256.89 454.086 1257.22 454.726C1257.57 455.353 1258.03 455.853 1258.6 456.226C1259.18 456.586 1259.81 456.766 1260.5 456.766C1261.2 456.766 1261.83 456.58 1262.4 456.206C1262.98 455.833 1263.44 455.326 1263.78 454.686C1264.13 454.033 1264.3 453.326 1264.3 452.566C1264.3 451.793 1264.13 451.086 1263.78 450.446C1263.44 449.806 1262.98 449.3 1262.4 448.926C1261.83 448.553 1261.2 448.366 1260.5 448.366C1259.81 448.366 1259.18 448.56 1258.6 448.946C1258.04 449.333 1257.59 449.846 1257.24 450.486C1256.9 451.113 1256.72 451.82 1256.72 452.606Z" fill="#404040"/>
<path d="M1271.38 457.966C1270.52 457.966 1269.73 457.826 1269 457.546C1268.26 457.266 1267.63 456.84 1267.1 456.266L1267.66 455.306C1268.24 455.853 1268.83 456.253 1269.42 456.506C1270.02 456.746 1270.65 456.866 1271.32 456.866C1272.13 456.866 1272.79 456.706 1273.3 456.386C1273.8 456.053 1274.06 455.58 1274.06 454.966C1274.06 454.553 1273.93 454.24 1273.68 454.026C1273.44 453.8 1273.08 453.62 1272.62 453.486C1272.16 453.34 1271.62 453.186 1270.98 453.026C1270.26 452.826 1269.65 452.62 1269.16 452.406C1268.68 452.18 1268.31 451.9 1268.06 451.566C1267.82 451.22 1267.7 450.773 1267.7 450.226C1267.7 449.546 1267.86 448.986 1268.2 448.546C1268.54 448.093 1269.01 447.753 1269.6 447.526C1270.2 447.286 1270.86 447.166 1271.6 447.166C1272.4 447.166 1273.1 447.293 1273.72 447.546C1274.33 447.8 1274.83 448.153 1275.22 448.606L1274.56 449.526C1274.18 449.1 1273.74 448.786 1273.22 448.586C1272.71 448.373 1272.14 448.266 1271.52 448.266C1271.09 448.266 1270.68 448.326 1270.3 448.446C1269.91 448.553 1269.59 448.74 1269.34 449.006C1269.1 449.26 1268.98 449.613 1268.98 450.066C1268.98 450.44 1269.07 450.733 1269.26 450.946C1269.44 451.146 1269.72 451.32 1270.1 451.466C1270.47 451.6 1270.93 451.746 1271.48 451.906C1272.26 452.12 1272.95 452.34 1273.54 452.566C1274.12 452.78 1274.58 453.06 1274.9 453.406C1275.22 453.753 1275.38 454.24 1275.38 454.866C1275.38 455.84 1275.01 456.6 1274.28 457.146C1273.54 457.693 1272.58 457.966 1271.38 457.966Z" fill="#404040"/>
<path d="M1282.1 450.846C1282.1 449.486 1282.38 448.166 1282.92 446.886C1283.47 445.593 1284.13 444.293 1284.9 442.986L1285.94 443.486C1285.68 443.886 1285.39 444.38 1285.08 444.966C1284.79 445.553 1284.51 446.186 1284.24 446.866C1283.99 447.533 1283.78 448.213 1283.62 448.906C1283.46 449.6 1283.38 450.266 1283.38 450.906C1283.38 451.946 1283.61 453.08 1284.06 454.306C1284.52 455.533 1285.14 456.753 1285.92 457.966L1284.9 458.506C1284.34 457.666 1283.85 456.82 1283.42 455.966C1283.01 455.113 1282.68 454.26 1282.44 453.406C1282.22 452.54 1282.1 451.686 1282.1 450.846Z" fill="#404040"/>
<path d="M1292.2 457.966C1291.46 457.966 1290.76 457.826 1290.12 457.546C1289.48 457.253 1288.93 456.86 1288.46 456.366C1288 455.86 1287.63 455.28 1287.36 454.626C1287.11 453.973 1286.98 453.273 1286.98 452.526C1286.98 451.553 1287.2 450.66 1287.64 449.846C1288.1 449.033 1288.72 448.386 1289.5 447.906C1290.29 447.413 1291.18 447.166 1292.18 447.166C1293.21 447.166 1294.1 447.413 1294.86 447.906C1295.64 448.4 1296.24 449.053 1296.68 449.866C1297.12 450.666 1297.34 451.546 1297.34 452.506C1297.34 452.613 1297.34 452.72 1297.34 452.826C1297.34 452.92 1297.34 452.993 1297.32 453.046H1288.4C1288.47 453.793 1288.68 454.46 1289.02 455.046C1289.38 455.62 1289.84 456.08 1290.4 456.426C1290.98 456.76 1291.6 456.926 1292.26 456.926C1292.94 456.926 1293.58 456.753 1294.18 456.406C1294.8 456.06 1295.22 455.606 1295.46 455.046L1296.64 455.366C1296.43 455.86 1296.1 456.306 1295.66 456.706C1295.22 457.106 1294.7 457.42 1294.1 457.646C1293.52 457.86 1292.88 457.966 1292.2 457.966ZM1288.36 452.066H1296.06C1296.01 451.306 1295.8 450.64 1295.44 450.066C1295.1 449.493 1294.64 449.046 1294.06 448.726C1293.5 448.393 1292.88 448.226 1292.2 448.226C1291.52 448.226 1290.9 448.393 1290.34 448.726C1289.78 449.046 1289.32 449.5 1288.96 450.086C1288.62 450.66 1288.42 451.32 1288.36 452.066Z" fill="#404040"/>
<path d="M1299.24 452.946V451.686H1305.08V452.946H1299.24Z" fill="#404040"/>
<path d="M1312.4 457.966C1311.64 457.966 1310.94 457.826 1310.3 457.546C1309.67 457.253 1309.12 456.853 1308.64 456.346C1308.17 455.84 1307.81 455.26 1307.54 454.606C1307.29 453.953 1307.16 453.26 1307.16 452.526C1307.16 451.54 1307.38 450.64 1307.82 449.826C1308.26 449.013 1308.87 448.366 1309.66 447.886C1310.45 447.406 1311.35 447.166 1312.38 447.166C1313.35 447.166 1314.21 447.393 1314.96 447.846C1315.71 448.286 1316.26 448.886 1316.62 449.646L1315.3 450.066C1315.01 449.533 1314.59 449.12 1314.06 448.826C1313.54 448.52 1312.96 448.366 1312.32 448.366C1311.63 448.366 1310.99 448.546 1310.42 448.906C1309.85 449.266 1309.39 449.76 1309.04 450.386C1308.71 451.013 1308.54 451.726 1308.54 452.526C1308.54 453.313 1308.71 454.026 1309.06 454.666C1309.41 455.306 1309.87 455.82 1310.44 456.206C1311.01 456.58 1311.65 456.766 1312.34 456.766C1312.79 456.766 1313.23 456.686 1313.64 456.526C1314.07 456.366 1314.43 456.153 1314.74 455.886C1315.06 455.606 1315.27 455.306 1315.38 454.986L1316.72 455.386C1316.53 455.88 1316.22 456.326 1315.78 456.726C1315.35 457.113 1314.85 457.42 1314.26 457.646C1313.69 457.86 1313.07 457.966 1312.4 457.966Z" fill="#404040"/>
<path d="M1318.02 454.766C1318.02 454.113 1318.2 453.553 1318.58 453.086C1318.95 452.606 1319.46 452.24 1320.12 451.986C1320.78 451.72 1321.55 451.586 1322.42 451.586C1322.92 451.586 1323.45 451.626 1324 451.706C1324.54 451.786 1325.03 451.906 1325.46 452.066V451.186C1325.46 450.306 1325.2 449.606 1324.68 449.086C1324.16 448.566 1323.44 448.306 1322.52 448.306C1321.96 448.306 1321.4 448.413 1320.86 448.626C1320.32 448.826 1319.76 449.126 1319.18 449.526L1318.66 448.566C1319.34 448.1 1320 447.753 1320.66 447.526C1321.31 447.286 1321.98 447.166 1322.66 447.166C1323.94 447.166 1324.95 447.533 1325.7 448.266C1326.44 449 1326.82 450.013 1326.82 451.306V456.126C1326.82 456.313 1326.86 456.453 1326.94 456.546C1327.02 456.626 1327.14 456.673 1327.32 456.686V457.766C1327.17 457.78 1327.04 457.793 1326.94 457.806C1326.83 457.82 1326.75 457.82 1326.7 457.806C1326.36 457.793 1326.11 457.686 1325.94 457.486C1325.76 457.286 1325.67 457.073 1325.66 456.846L1325.64 456.086C1325.17 456.686 1324.56 457.153 1323.82 457.486C1323.07 457.806 1322.31 457.966 1321.54 457.966C1320.87 457.966 1320.26 457.826 1319.72 457.546C1319.18 457.253 1318.76 456.866 1318.46 456.386C1318.16 455.893 1318.02 455.353 1318.02 454.766ZM1325 455.566C1325.14 455.38 1325.26 455.2 1325.34 455.026C1325.42 454.853 1325.46 454.7 1325.46 454.566V453.046C1325 452.873 1324.53 452.74 1324.04 452.646C1323.56 452.553 1323.07 452.506 1322.58 452.506C1321.6 452.506 1320.82 452.7 1320.22 453.086C1319.62 453.473 1319.32 454 1319.32 454.666C1319.32 455.053 1319.42 455.42 1319.62 455.766C1319.82 456.1 1320.11 456.38 1320.5 456.606C1320.88 456.82 1321.34 456.926 1321.86 456.926C1322.51 456.926 1323.12 456.8 1323.68 456.546C1324.25 456.293 1324.69 455.966 1325 455.566Z" fill="#404040"/>
<path d="M1334.28 457.966C1333.52 457.966 1332.82 457.826 1332.18 457.546C1331.55 457.253 1331 456.853 1330.52 456.346C1330.05 455.84 1329.68 455.26 1329.42 454.606C1329.16 453.953 1329.04 453.26 1329.04 452.526C1329.04 451.54 1329.26 450.64 1329.7 449.826C1330.14 449.013 1330.75 448.366 1331.54 447.886C1332.32 447.406 1333.23 447.166 1334.26 447.166C1335.23 447.166 1336.09 447.393 1336.84 447.846C1337.58 448.286 1338.14 448.886 1338.5 449.646L1337.18 450.066C1336.88 449.533 1336.47 449.12 1335.94 448.826C1335.42 448.52 1334.84 448.366 1334.2 448.366C1333.5 448.366 1332.87 448.546 1332.3 448.906C1331.72 449.266 1331.26 449.76 1330.92 450.386C1330.58 451.013 1330.42 451.726 1330.42 452.526C1330.42 453.313 1330.59 454.026 1330.94 454.666C1331.28 455.306 1331.74 455.82 1332.32 456.206C1332.89 456.58 1333.52 456.766 1334.22 456.766C1334.67 456.766 1335.1 456.686 1335.52 456.526C1335.94 456.366 1336.31 456.153 1336.62 455.886C1336.94 455.606 1337.15 455.306 1337.26 454.986L1338.6 455.386C1338.41 455.88 1338.1 456.326 1337.66 456.726C1337.23 457.113 1336.72 457.42 1336.14 457.646C1335.56 457.86 1334.94 457.966 1334.28 457.966Z" fill="#404040"/>
<path d="M1343.71 450.846C1343.71 451.686 1343.6 452.54 1343.37 453.406C1343.15 454.26 1342.82 455.113 1342.39 455.966C1341.97 456.82 1341.47 457.666 1340.91 458.506L1339.91 457.966C1340.7 456.753 1341.32 455.533 1341.77 454.306C1342.23 453.08 1342.45 451.946 1342.45 450.906C1342.45 450.266 1342.37 449.6 1342.21 448.906C1342.05 448.213 1341.84 447.533 1341.57 446.866C1341.31 446.186 1341.03 445.553 1340.73 444.966C1340.44 444.38 1340.15 443.886 1339.87 443.486L1340.93 442.986C1341.71 444.293 1342.36 445.593 1342.89 446.886C1343.44 448.166 1343.71 449.486 1343.71 450.846Z" fill="#404040"/>
<path d="M1049.95 455.847C1049.95 458.637 1052.45 460.881 1055.53 460.881H1061.81C1064.48 460.881 1066.65 458.925 1066.65 456.48C1066.65 453.862 1065.32 452.913 1063.35 452.309L1053.29 449.288C1051.32 448.684 1049.98 447.764 1049.98 445.117C1049.98 442.701 1052.15 440.716 1054.83 440.716H1061.11C1064.18 440.716 1066.69 442.96 1066.69 445.75" stroke="#0F1D4B" stroke-width="2" stroke-linecap="round" stroke-linejoin="round"/>
<path d="M1057.9 437.869V463.759" stroke="#0F1D4B" stroke-width="2" stroke-linecap="round" stroke-linejoin="round"/>
<path d="M681.341 292.244H683.753L675.689 311H673.565L669.641 301.676L665.753 311H663.629L655.565 292.244H657.941L664.781 308.48L668.237 300.02L665.069 292.28H667.265L669.641 298.364L672.053 292.28H674.213L671.081 300.02L674.537 308.48L681.341 292.244Z" fill="#AFAFAF"/>
<path d="M710.627 292.244H713.039L704.975 311H702.851L698.927 301.676L695.039 311H692.915L684.851 292.244H687.227L694.067 308.48L697.523 300.02L694.355 292.28H696.551L698.927 298.364L701.339 292.28H703.499L700.367 300.02L703.823 308.48L710.627 292.244Z" fill="#AFAFAF"/>
<path d="M739.912 292.244H742.324L734.26 311H732.136L728.212 301.676L724.324 311H722.2L714.136 292.244H716.512L723.352 308.48L726.808 300.02L723.64 292.28H725.836L728.212 298.364L730.624 292.28H732.784L729.652 300.02L733.108 308.48L739.912 292.244Z" fill="#AFAFAF"/>
<path d="M742.619 311V307.472H744.743V311H742.619Z" fill="#AFAFAF"/>
<path d="M765.568 311H763.12V300.524C763.12 298.412 762.748 296.828 762.004 295.772C761.26 294.692 760.192 294.152 758.8 294.152C757.888 294.152 756.976 294.392 756.064 294.872C755.176 295.328 754.384 295.964 753.688 296.78C753.016 297.572 752.536 298.484 752.248 299.516V311H749.8V284.72H752.248V296.492C752.992 295.1 754.024 293.996 755.344 293.18C756.688 292.34 758.116 291.92 759.628 291.92C760.708 291.92 761.62 292.112 762.364 292.496C763.132 292.88 763.744 293.444 764.2 294.188C764.68 294.908 765.028 295.76 765.244 296.744C765.46 297.704 765.568 298.796 765.568 300.02V311Z" fill="#AFAFAF"/>
<path d="M770.608 303.26V292.244H773.056V302.828C773.056 304.964 773.416 306.56 774.136 307.616C774.88 308.672 775.972 309.2 777.412 309.2C778.372 309.2 779.296 308.996 780.184 308.588C781.096 308.156 781.9 307.556 782.596 306.788C783.292 305.996 783.82 305.084 784.18 304.052V292.244H786.628V308.048C786.628 308.384 786.7 308.636 786.844 308.804C786.988 308.948 787.204 309.032 787.492 309.056V311C787.204 311.024 786.976 311.036 786.808 311.036C786.64 311.06 786.484 311.072 786.34 311.072C785.86 311.024 785.44 310.832 785.08 310.496C784.744 310.16 784.564 309.752 784.54 309.272L784.468 306.752C783.652 308.192 782.536 309.32 781.12 310.136C779.728 310.952 778.216 311.36 776.584 311.36C774.616 311.36 773.128 310.676 772.12 309.308C771.112 307.94 770.608 305.924 770.608 303.26Z" fill="#AFAFAF"/>
<path d="M801.343 311.36C799.879 311.36 798.523 310.988 797.275 310.244C796.027 309.476 795.055 308.516 794.359 307.364V311H792.163V284.72H794.611V296.168C795.451 294.896 796.459 293.876 797.635 293.108C798.811 292.316 800.179 291.92 801.739 291.92C803.059 291.92 804.235 292.196 805.267 292.748C806.323 293.3 807.223 294.044 807.967 294.98C808.711 295.892 809.275 296.936 809.659 298.112C810.043 299.264 810.235 300.452 810.235 301.676C810.235 302.996 810.007 304.232 809.551 305.384C809.119 306.536 808.495 307.568 807.679 308.48C806.863 309.368 805.915 310.076 804.835 310.604C803.779 311.108 802.615 311.36 801.343 311.36ZM800.767 309.2C801.775 309.2 802.711 308.996 803.575 308.588C804.439 308.18 805.183 307.616 805.807 306.896C806.431 306.176 806.911 305.372 807.247 304.484C807.583 303.572 807.751 302.636 807.751 301.676C807.751 300.356 807.463 299.12 806.887 297.968C806.335 296.792 805.555 295.856 804.547 295.16C803.563 294.44 802.399 294.08 801.055 294.08C800.095 294.08 799.195 294.296 798.355 294.728C797.539 295.16 796.807 295.736 796.159 296.456C795.535 297.152 795.019 297.92 794.611 298.76V304.592C794.707 305.24 794.959 305.852 795.367 306.428C795.775 306.98 796.279 307.46 796.879 307.868C797.503 308.276 798.151 308.6 798.823 308.84C799.495 309.08 800.143 309.2 800.767 309.2Z" fill="#AFAFAF"/>
<path d="M820.538 311.36C819.002 311.36 817.574 311.108 816.254 310.604C814.934 310.1 813.794 309.332 812.834 308.3L813.842 306.572C814.898 307.556 815.954 308.276 817.01 308.732C818.09 309.164 819.23 309.38 820.43 309.38C821.894 309.38 823.082 309.092 823.994 308.516C824.906 307.916 825.362 307.064 825.362 305.96C825.362 305.216 825.134 304.652 824.678 304.268C824.246 303.86 823.61 303.536 822.77 303.296C821.954 303.032 820.97 302.756 819.818 302.468C818.522 302.108 817.43 301.736 816.542 301.352C815.678 300.944 815.018 300.44 814.562 299.84C814.13 299.216 813.914 298.412 813.914 297.428C813.914 296.204 814.214 295.196 814.814 294.404C815.438 293.588 816.278 292.976 817.334 292.568C818.414 292.136 819.614 291.92 820.934 291.92C822.374 291.92 823.646 292.148 824.75 292.604C825.854 293.06 826.754 293.696 827.45 294.512L826.262 296.168C825.59 295.4 824.786 294.836 823.85 294.476C822.938 294.092 821.918 293.9 820.79 293.9C820.022 293.9 819.29 294.008 818.594 294.224C817.898 294.416 817.322 294.752 816.866 295.232C816.434 295.688 816.218 296.324 816.218 297.14C816.218 297.812 816.386 298.34 816.722 298.724C817.058 299.084 817.562 299.396 818.234 299.66C818.906 299.9 819.734 300.164 820.718 300.452C822.134 300.836 823.37 301.232 824.426 301.64C825.482 302.024 826.298 302.528 826.874 303.152C827.45 303.776 827.738 304.652 827.738 305.78C827.738 307.532 827.078 308.9 825.758 309.884C824.438 310.868 822.698 311.36 820.538 311.36Z" fill="#AFAFAF"/>
<path d="M831.784 311V292.244H834.232V311H831.784ZM831.784 288.32V284.72H834.232V288.32H831.784Z" fill="#AFAFAF"/>
<path d="M847.724 311.36C846.38 311.36 845.132 311.108 843.98 310.604C842.828 310.076 841.832 309.368 840.992 308.48C840.152 307.568 839.492 306.524 839.012 305.348C838.556 304.172 838.328 302.912 838.328 301.568C838.328 299.816 838.724 298.208 839.516 296.744C840.332 295.28 841.448 294.116 842.864 293.252C844.28 292.364 845.888 291.92 847.688 291.92C849.536 291.92 851.144 292.364 852.512 293.252C853.904 294.14 854.996 295.316 855.788 296.78C856.58 298.22 856.976 299.804 856.976 301.532C856.976 301.724 856.976 301.916 856.976 302.108C856.976 302.276 856.964 302.408 856.94 302.504H840.884C841.004 303.848 841.376 305.048 842 306.104C842.648 307.136 843.476 307.964 844.484 308.588C845.516 309.188 846.632 309.488 847.832 309.488C849.056 309.488 850.208 309.176 851.288 308.552C852.392 307.928 853.16 307.112 853.592 306.104L855.716 306.68C855.332 307.568 854.744 308.372 853.952 309.092C853.16 309.812 852.224 310.376 851.144 310.784C850.088 311.168 848.948 311.36 847.724 311.36ZM840.812 300.74H854.672C854.576 299.372 854.204 298.172 853.556 297.14C852.932 296.108 852.104 295.304 851.072 294.728C850.064 294.128 848.948 293.828 847.724 293.828C846.5 293.828 845.384 294.128 844.376 294.728C843.368 295.304 842.54 296.12 841.892 297.176C841.268 298.208 840.908 299.396 840.812 300.74Z" fill="#AFAFAF"/>
<path d="M870.113 294.404C868.481 294.452 867.041 294.908 865.793 295.772C864.569 296.636 863.705 297.824 863.201 299.336V311H860.753V292.244H863.057V296.744C863.705 295.424 864.557 294.356 865.613 293.54C866.693 292.724 867.833 292.268 869.033 292.172C869.273 292.148 869.477 292.136 869.645 292.136C869.837 292.136 869.993 292.148 870.113 292.172V294.404Z" fill="#AFAFAF"/>
<path d="M880.768 311.36C879.424 311.36 878.176 311.108 877.024 310.604C875.896 310.076 874.912 309.368 874.072 308.48C873.256 307.568 872.62 306.536 872.164 305.384C871.708 304.208 871.48 302.972 871.48 301.676C871.48 300.332 871.708 299.084 872.164 297.932C872.62 296.756 873.268 295.724 874.108 294.836C874.948 293.924 875.932 293.216 877.06 292.712C878.212 292.184 879.46 291.92 880.804 291.92C882.148 291.92 883.384 292.184 884.512 292.712C885.64 293.216 886.624 293.924 887.464 294.836C888.304 295.724 888.952 296.756 889.408 297.932C889.864 299.084 890.092 300.332 890.092 301.676C890.092 302.972 889.864 304.208 889.408 305.384C888.952 306.536 888.304 307.568 887.464 308.48C886.648 309.368 885.664 310.076 884.512 310.604C883.384 311.108 882.136 311.36 880.768 311.36ZM873.964 301.712C873.964 303.104 874.264 304.376 874.864 305.528C875.488 306.656 876.316 307.556 877.348 308.228C878.38 308.876 879.52 309.2 880.768 309.2C882.016 309.2 883.156 308.864 884.188 308.192C885.22 307.52 886.048 306.608 886.672 305.456C887.296 304.28 887.608 303.008 887.608 301.64C887.608 300.248 887.296 298.976 886.672 297.824C886.048 296.672 885.22 295.76 884.188 295.088C883.156 294.416 882.016 294.08 880.768 294.08C879.52 294.08 878.38 294.428 877.348 295.124C876.34 295.82 875.524 296.744 874.9 297.896C874.276 299.024 873.964 300.296 873.964 301.712Z" fill="#AFAFAF"/>
<path d="M893.123 311V307.472H895.247V311H893.123Z" fill="#AFAFAF"/>
<path d="M907.736 311.36C906.368 311.36 905.108 311.108 903.956 310.604C902.828 310.076 901.832 309.356 900.968 308.444C900.128 307.532 899.468 306.488 898.988 305.312C898.532 304.136 898.304 302.888 898.304 301.568C898.304 299.792 898.7 298.172 899.492 296.708C900.284 295.244 901.388 294.08 902.804 293.216C904.22 292.352 905.852 291.92 907.7 291.92C909.452 291.92 911 292.328 912.344 293.144C913.688 293.936 914.684 295.016 915.332 296.384L912.956 297.14C912.428 296.18 911.684 295.436 910.724 294.908C909.788 294.356 908.744 294.08 907.592 294.08C906.344 294.08 905.204 294.404 904.172 295.052C903.14 295.7 902.312 296.588 901.688 297.716C901.088 298.844 900.788 300.128 900.788 301.568C900.788 302.984 901.1 304.268 901.724 305.42C902.348 306.572 903.176 307.496 904.208 308.192C905.24 308.864 906.38 309.2 907.628 309.2C908.444 309.2 909.224 309.056 909.968 308.768C910.736 308.48 911.396 308.096 911.948 307.616C912.524 307.112 912.908 306.572 913.1 305.996L915.512 306.716C915.176 307.604 914.612 308.408 913.82 309.128C913.052 309.824 912.14 310.376 911.084 310.784C910.052 311.168 908.936 311.36 907.736 311.36Z" fill="#AFAFAF"/>
<path d="M927.174 311.36C925.83 311.36 924.582 311.108 923.43 310.604C922.302 310.076 921.318 309.368 920.478 308.48C919.662 307.568 919.026 306.536 918.57 305.384C918.114 304.208 917.886 302.972 917.886 301.676C917.886 300.332 918.114 299.084 918.57 297.932C919.026 296.756 919.674 295.724 920.514 294.836C921.354 293.924 922.338 293.216 923.466 292.712C924.618 292.184 925.866 291.92 927.21 291.92C928.554 291.92 929.79 292.184 930.918 292.712C932.046 293.216 933.03 293.924 933.87 294.836C934.71 295.724 935.358 296.756 935.814 297.932C936.27 299.084 936.498 300.332 936.498 301.676C936.498 302.972 936.27 304.208 935.814 305.384C935.358 306.536 934.71 307.568 933.87 308.48C933.054 309.368 932.07 310.076 930.918 310.604C929.79 311.108 928.542 311.36 927.174 311.36ZM920.37 301.712C920.37 303.104 920.67 304.376 921.27 305.528C921.894 306.656 922.722 307.556 923.754 308.228C924.786 308.876 925.926 309.2 927.174 309.2C928.422 309.2 929.562 308.864 930.594 308.192C931.626 307.52 932.454 306.608 933.078 305.456C933.702 304.28 934.014 303.008 934.014 301.64C934.014 300.248 933.702 298.976 933.078 297.824C932.454 296.672 931.626 295.76 930.594 295.088C929.562 294.416 928.422 294.08 927.174 294.08C925.926 294.08 924.786 294.428 923.754 295.124C922.746 295.82 921.93 296.744 921.306 297.896C920.682 299.024 920.37 300.296 920.37 301.712Z" fill="#AFAFAF"/>
<path d="M968.493 311H966.045V300.524C966.045 298.34 965.697 296.732 965.001 295.7C964.305 294.668 963.273 294.152 961.905 294.152C960.489 294.152 959.217 294.656 958.089 295.664C956.985 296.672 956.205 297.968 955.749 299.552V311H953.301V300.524C953.301 298.316 952.965 296.708 952.293 295.7C951.621 294.668 950.589 294.152 949.197 294.152C947.805 294.152 946.545 294.644 945.417 295.628C944.289 296.612 943.497 297.908 943.041 299.516V311H940.593V292.244H942.825V296.492C943.617 295.028 944.625 293.9 945.849 293.108C947.097 292.316 948.477 291.92 949.989 291.92C951.549 291.92 952.809 292.364 953.769 293.252C954.729 294.14 955.317 295.304 955.533 296.744C956.397 295.16 957.429 293.96 958.629 293.144C959.853 292.328 961.233 291.92 962.769 291.92C963.825 291.92 964.713 292.112 965.433 292.496C966.177 292.88 966.765 293.432 967.197 294.152C967.653 294.848 967.977 295.7 968.169 296.708C968.385 297.692 968.493 298.796 968.493 300.02V311Z" fill="#AFAFAF"/>
</svg>
