<svg width="1017" height="217" viewBox="0 0 1017 217" fill="none" xmlns="http://www.w3.org/2000/svg">
<path d="M-0.000156164 70.0801V1.92007H23.6158C30.9118 1.92007 36.9918 3.45607 41.8558 6.52807C46.7838 9.53608 50.4638 13.6321 52.8958 18.8161C55.3278 23.9361 56.5438 29.6321 56.5438 35.9041C56.5438 42.8161 55.1998 48.8321 52.5118 53.9521C49.8238 59.0721 46.0158 63.0401 41.0878 65.8561C36.1598 68.6721 30.3358 70.0801 23.6158 70.0801H-0.000156164ZM47.8078 35.9041C47.8078 30.7841 46.8478 26.2401 44.9278 22.2721C43.0718 18.3041 40.3518 15.2001 36.7678 12.9601C33.1838 10.7201 28.7998 9.60007 23.6158 9.60007H8.63984V62.4001H23.6158C28.8638 62.4001 33.2798 61.2481 36.8638 58.9441C40.4478 56.5761 43.1678 53.4081 45.0238 49.4401C46.8798 45.4081 47.8078 40.8961 47.8078 35.9041ZM89.5506 71.0401C85.7746 71.0401 82.3186 70.3681 79.1826 69.0241C76.1106 67.6161 73.4226 65.7281 71.1186 63.3601C68.8786 60.9281 67.1186 58.1441 65.8386 55.0081C64.6226 51.8721 64.0146 48.5441 64.0146 45.0241C64.0146 40.2881 65.1026 35.9681 67.2786 32.0641C69.4546 28.1601 72.4626 25.0241 76.3026 22.6561C80.2066 20.2881 84.6546 19.1041 89.6466 19.1041C94.7026 19.1041 99.0866 20.3201 102.799 22.7521C106.575 25.1201 109.487 28.2561 111.535 32.1601C113.647 36.0001 114.703 40.1601 114.703 44.6401C114.703 45.2801 114.671 45.9201 114.607 46.5601C114.607 47.1361 114.575 47.5841 114.511 47.9041H72.9426C73.1986 51.1681 74.0946 54.0801 75.6306 56.6401C77.2306 59.1361 79.2786 61.1201 81.7746 62.5921C84.2706 64.0001 86.9586 64.7041 89.8386 64.7041C92.9106 64.7041 95.7906 63.9361 98.4786 62.4001C101.231 60.8641 103.119 58.8481 104.143 56.3521L111.439 58.3681C110.351 60.8001 108.719 62.9761 106.543 64.8961C104.431 66.8161 101.903 68.3201 98.9586 69.4081C96.0786 70.4961 92.9426 71.0401 89.5506 71.0401ZM72.6546 42.0481H106.831C106.575 38.7841 105.647 35.9041 104.047 33.4081C102.447 30.9121 100.399 28.9601 97.9026 27.5521C95.4066 26.1441 92.6546 25.4401 89.6466 25.4401C86.7026 25.4401 83.9826 26.1441 81.4866 27.5521C78.9906 28.9601 76.9426 30.9121 75.3426 33.4081C73.8066 35.9041 72.9106 38.7841 72.6546 42.0481ZM151.069 71.0401C146.973 71.0401 143.325 70.0161 140.125 67.9681C136.925 65.9201 134.397 63.3281 132.541 60.1921V90.5281H124.093V19.9681H131.581V29.3761C133.565 26.3041 136.157 23.8401 139.357 21.9841C142.557 20.0641 146.045 19.1041 149.821 19.1041C153.277 19.1041 156.445 19.8081 159.325 21.2161C162.205 22.6241 164.701 24.5441 166.813 26.9761C168.925 29.4081 170.557 32.1921 171.709 35.3281C172.925 38.4001 173.533 41.6321 173.533 45.0241C173.533 49.7601 172.573 54.1121 170.653 58.0801C168.797 62.0481 166.173 65.2161 162.781 67.5841C159.389 69.8881 155.485 71.0401 151.069 71.0401ZM148.477 63.7441C150.973 63.7441 153.213 63.2321 155.197 62.2081C157.245 61.1201 158.973 59.7121 160.381 57.9841C161.853 56.1921 162.973 54.1761 163.741 51.9361C164.509 49.6961 164.893 47.3921 164.893 45.0241C164.893 42.5281 164.445 40.1601 163.549 37.9201C162.717 35.6801 161.501 33.6961 159.901 31.9681C158.365 30.2401 156.541 28.8961 154.429 27.9361C152.381 26.9121 150.141 26.4001 147.709 26.4001C146.173 26.4001 144.573 26.6881 142.909 27.2641C141.309 27.8401 139.773 28.6721 138.301 29.7601C136.829 30.7841 135.581 31.9681 134.557 33.3121C133.533 34.6561 132.861 36.0961 132.541 37.6321V51.9361C133.501 54.1121 134.781 56.0961 136.381 57.8881C137.981 59.6801 139.837 61.1201 141.949 62.2081C144.061 63.2321 146.237 63.7441 148.477 63.7441ZM179.97 55.5841C179.97 52.3841 180.866 49.6321 182.658 47.3281C184.514 44.9601 187.042 43.1361 190.242 41.8561C193.442 40.5761 197.154 39.9361 201.378 39.9361C203.618 39.9361 205.986 40.1281 208.482 40.5121C210.978 40.8321 213.186 41.3441 215.106 42.0481V38.4001C215.106 34.5601 213.954 31.5521 211.65 29.3761C209.346 27.1361 206.082 26.0161 201.858 26.0161C199.106 26.0161 196.45 26.5281 193.89 27.5521C191.394 28.5121 188.738 29.9201 185.922 31.7761L182.85 25.8241C186.114 23.5841 189.378 21.9201 192.642 20.8321C195.906 19.6801 199.298 19.1041 202.818 19.1041C209.218 19.1041 214.274 20.8961 217.986 24.4801C221.698 28.0001 223.554 32.9281 223.554 39.2641V60.4801C223.554 61.5041 223.746 62.2721 224.13 62.7841C224.578 63.2321 225.282 63.4881 226.242 63.5521V70.0801C225.41 70.2081 224.674 70.3041 224.034 70.3681C223.458 70.4321 222.978 70.4641 222.594 70.4641C220.61 70.4641 219.106 69.9201 218.082 68.8321C217.122 67.7441 216.578 66.5921 216.45 65.3761L216.258 62.2081C214.082 65.0241 211.234 67.2001 207.714 68.7361C204.194 70.2721 200.706 71.0401 197.25 71.0401C193.922 71.0401 190.946 70.3681 188.322 69.0241C185.698 67.6161 183.65 65.7601 182.178 63.4561C180.706 61.0881 179.97 58.4641 179.97 55.5841ZM212.61 59.1361C213.378 58.2401 213.986 57.3441 214.434 56.4481C214.882 55.4881 215.106 54.6881 215.106 54.0481V47.8081C213.122 47.0401 211.042 46.4641 208.866 46.0801C206.69 45.6321 204.546 45.4081 202.434 45.4081C198.146 45.4081 194.658 46.2721 191.97 48.0001C189.346 49.6641 188.034 51.9681 188.034 54.9121C188.034 56.5121 188.45 58.0801 189.282 59.6161C190.178 61.0881 191.458 62.3041 193.122 63.2641C194.85 64.2241 196.962 64.7041 199.458 64.7041C202.082 64.7041 204.578 64.1921 206.946 63.1681C209.314 62.0801 211.202 60.7361 212.61 59.1361ZM263.558 27.3601C259.334 27.4241 255.59 28.5121 252.326 30.6241C249.126 32.6721 246.854 35.5201 245.51 39.1681V70.0801H237.062V19.9681H244.934V31.5841C246.662 28.1281 248.934 25.3441 251.75 23.2321C254.63 21.0561 257.638 19.8401 260.774 19.5841C261.414 19.5841 261.958 19.5841 262.406 19.5841C262.854 19.5841 263.238 19.6161 263.558 19.6801V27.3601ZM297.857 67.5841C297.153 67.9041 296.193 68.3201 294.977 68.8321C293.761 69.3441 292.353 69.7921 290.753 70.1761C289.153 70.5601 287.457 70.7521 285.665 70.7521C283.617 70.7521 281.729 70.4001 280.001 69.6961C278.273 68.9281 276.897 67.7761 275.873 66.2401C274.849 64.6401 274.337 62.6561 274.337 60.2881V26.5921H267.521V19.9681H274.337V3.26407H282.785V19.9681H294.017V26.5921H282.785V57.6961C282.913 59.4881 283.521 60.8321 284.609 61.7281C285.697 62.5601 286.977 62.9761 288.449 62.9761C290.113 62.9761 291.649 62.6881 293.057 62.1121C294.465 61.5361 295.393 61.1201 295.841 60.8641L297.857 67.5841ZM301.751 55.5841C301.751 52.3841 302.647 49.6321 304.439 47.3281C306.295 44.9601 308.823 43.1361 312.023 41.8561C315.223 40.5761 318.935 39.9361 323.159 39.9361C325.399 39.9361 327.767 40.1281 330.263 40.5121C332.759 40.8321 334.967 41.3441 336.887 42.0481V38.4001C336.887 34.5601 335.735 31.5521 333.431 29.3761C331.127 27.1361 327.863 26.0161 323.639 26.0161C320.887 26.0161 318.231 26.5281 315.671 27.5521C313.175 28.5121 310.519 29.9201 307.703 31.7761L304.631 25.8241C307.895 23.5841 311.159 21.9201 314.423 20.8321C317.687 19.6801 321.079 19.1041 324.599 19.1041C330.999 19.1041 336.055 20.8961 339.767 24.4801C343.479 28.0001 345.335 32.9281 345.335 39.2641V60.4801C345.335 61.5041 345.527 62.2721 345.911 62.7841C346.359 63.2321 347.063 63.4881 348.023 63.5521V70.0801C347.191 70.2081 346.455 70.3041 345.815 70.3681C345.239 70.4321 344.759 70.4641 344.375 70.4641C342.391 70.4641 340.887 69.9201 339.863 68.8321C338.903 67.7441 338.359 66.5921 338.231 65.3761L338.039 62.2081C335.863 65.0241 333.015 67.2001 329.495 68.7361C325.975 70.2721 322.487 71.0401 319.031 71.0401C315.703 71.0401 312.727 70.3681 310.103 69.0241C307.479 67.6161 305.431 65.7601 303.959 63.4561C302.487 61.0881 301.751 58.4641 301.751 55.5841ZM334.391 59.1361C335.159 58.2401 335.767 57.3441 336.215 56.4481C336.663 55.4881 336.887 54.6881 336.887 54.0481V47.8081C334.903 47.0401 332.823 46.4641 330.647 46.0801C328.471 45.6321 326.327 45.4081 324.215 45.4081C319.927 45.4081 316.439 46.2721 313.751 48.0001C311.127 49.6641 309.815 51.9681 309.815 54.9121C309.815 56.5121 310.231 58.0801 311.063 59.6161C311.959 61.0881 313.239 62.3041 314.903 63.2641C316.631 64.2241 318.743 64.7041 321.239 64.7041C323.863 64.7041 326.359 64.1921 328.727 63.1681C331.095 62.0801 332.983 60.7361 334.391 59.1361ZM434.395 70.0801H425.947V42.0481C425.947 36.8001 425.083 32.9281 423.355 30.4321C421.691 27.9361 419.195 26.6881 415.867 26.6881C412.475 26.6881 409.403 27.9361 406.651 30.4321C403.899 32.8641 401.947 36.0321 400.795 39.9361V70.0801H392.347V42.0481C392.347 36.7361 391.515 32.8641 389.851 30.4321C388.187 27.9361 385.691 26.6881 382.363 26.6881C379.035 26.6881 375.963 27.9041 373.147 30.3361C370.395 32.7041 368.443 35.8721 367.291 39.8401V70.0801H358.843V19.9681H366.523V30.7201C368.571 27.0081 371.227 24.1601 374.491 22.1761C377.755 20.1281 381.435 19.1041 385.531 19.1041C389.691 19.1041 393.019 20.2561 395.515 22.5601C398.011 24.8001 399.547 27.7121 400.123 31.2961C402.363 27.3281 405.083 24.3201 408.283 22.2721C411.483 20.1601 415.131 19.1041 419.227 19.1041C422.107 19.1041 424.507 19.6481 426.427 20.7361C428.411 21.7601 429.979 23.2321 431.131 25.1521C432.283 27.0081 433.115 29.2161 433.627 31.7761C434.139 34.3361 434.395 37.1201 434.395 40.1281V70.0801ZM469.707 71.0401C465.931 71.0401 462.475 70.3681 459.339 69.0241C456.267 67.6161 453.579 65.7281 451.275 63.3601C449.035 60.9281 447.275 58.1441 445.995 55.0081C444.779 51.8721 444.171 48.5441 444.171 45.0241C444.171 40.2881 445.259 35.9681 447.435 32.0641C449.611 28.1601 452.619 25.0241 456.459 22.6561C460.363 20.2881 464.811 19.1041 469.803 19.1041C474.859 19.1041 479.243 20.3201 482.955 22.7521C486.731 25.1201 489.643 28.2561 491.691 32.1601C493.803 36.0001 494.859 40.1601 494.859 44.6401C494.859 45.2801 494.827 45.9201 494.763 46.5601C494.763 47.1361 494.731 47.5841 494.667 47.9041H453.099C453.355 51.1681 454.251 54.0801 455.787 56.6401C457.387 59.1361 459.435 61.1201 461.931 62.5921C464.427 64.0001 467.115 64.7041 469.995 64.7041C473.067 64.7041 475.947 63.9361 478.635 62.4001C481.387 60.8641 483.275 58.8481 484.299 56.3521L491.595 58.3681C490.507 60.8001 488.875 62.9761 486.699 64.8961C484.587 66.8161 482.059 68.3201 479.115 69.4081C476.235 70.4961 473.099 71.0401 469.707 71.0401ZM452.811 42.0481H486.987C486.731 38.7841 485.803 35.9041 484.203 33.4081C482.603 30.9121 480.555 28.9601 478.059 27.5521C475.563 26.1441 472.811 25.4401 469.803 25.4401C466.859 25.4401 464.139 26.1441 461.643 27.5521C459.147 28.9601 457.099 30.9121 455.499 33.4081C453.963 35.9041 453.067 38.7841 452.811 42.0481ZM547.738 70.0801H539.29V42.0481C539.29 36.7361 538.458 32.8641 536.794 30.4321C535.194 27.9361 532.73 26.6881 529.402 26.6881C527.098 26.6881 524.794 27.2641 522.49 28.4161C520.25 29.5681 518.234 31.1361 516.442 33.1201C514.714 35.0401 513.466 37.2801 512.698 39.8401V70.0801H504.25V19.9681H511.93V30.7201C513.274 28.3521 515.002 26.3041 517.114 24.5761C519.226 22.8481 521.626 21.5041 524.314 20.5441C527.002 19.5841 529.818 19.1041 532.762 19.1041C535.642 19.1041 538.042 19.6481 539.962 20.7361C541.946 21.7601 543.482 23.2321 544.57 25.1521C545.722 27.0081 546.522 29.2161 546.97 31.7761C547.482 34.3361 547.738 37.1201 547.738 40.1281V70.0801ZM586.326 67.5841C585.622 67.9041 584.662 68.3201 583.446 68.8321C582.23 69.3441 580.822 69.7921 579.222 70.1761C577.622 70.5601 575.926 70.7521 574.134 70.7521C572.086 70.7521 570.198 70.4001 568.47 69.6961C566.742 68.9281 565.366 67.7761 564.342 66.2401C563.318 64.6401 562.806 62.6561 562.806 60.2881V26.5921H555.99V19.9681H562.806V3.26407H571.254V19.9681H582.486V26.5921H571.254V57.6961C571.382 59.4881 571.99 60.8321 573.078 61.7281C574.166 62.5601 575.446 62.9761 576.918 62.9761C578.582 62.9761 580.118 62.6881 581.526 62.1121C582.934 61.5361 583.862 61.1201 584.31 60.8641L586.326 67.5841ZM615.388 71.0401C611.612 71.0401 608.188 70.3681 605.116 69.0241C602.044 67.6161 599.388 65.7281 597.148 63.3601C594.908 60.9281 593.18 58.1441 591.964 55.0081C590.748 51.8721 590.14 48.5761 590.14 45.1201C590.14 41.6001 590.748 38.2721 591.964 35.1361C593.18 32.0001 594.908 29.2481 597.148 26.8801C599.388 24.4481 602.044 22.5601 605.116 21.2161C608.252 19.8081 611.676 19.1041 615.388 19.1041C619.164 19.1041 622.588 19.8081 625.66 21.2161C628.732 22.5601 631.388 24.4481 633.628 26.8801C635.932 29.2481 637.692 32.0001 638.908 35.1361C640.124 38.2721 640.732 41.6001 640.732 45.1201C640.732 48.5761 640.124 51.8721 638.908 55.0081C637.692 58.1441 635.964 60.9281 633.724 63.3601C631.484 65.7281 628.796 67.6161 625.66 69.0241C622.588 70.3681 619.164 71.0401 615.388 71.0401ZM598.78 45.2161C598.78 48.6721 599.516 51.8081 600.988 54.6241C602.524 57.4401 604.54 59.6801 607.036 61.3441C609.532 62.9441 612.316 63.7441 615.388 63.7441C618.46 63.7441 621.244 62.9121 623.74 61.2481C626.3 59.5841 628.316 57.3441 629.788 54.5281C631.324 51.6481 632.092 48.4801 632.092 45.0241C632.092 41.5681 631.324 38.4321 629.788 35.6161C628.316 32.8001 626.3 30.5601 623.74 28.8961C621.244 27.2321 618.46 26.4001 615.388 26.4001C612.316 26.4001 609.532 27.2641 607.036 28.9921C604.54 30.6561 602.524 32.8961 600.988 35.7121C599.516 38.5281 598.78 41.6961 598.78 45.2161ZM676.594 70.0801V1.92007H705.01C708.018 1.92007 710.77 2.56007 713.266 3.84007C715.762 5.05608 717.938 6.72008 719.794 8.83208C721.65 10.8801 723.09 13.2161 724.114 15.8401C725.138 18.4001 725.65 21.0241 725.65 23.7121C725.65 27.4241 724.818 30.9761 723.154 34.3681C721.49 37.6961 719.154 40.4161 716.146 42.5281C713.138 44.5761 709.618 45.6001 705.586 45.6001H685.234V70.0801H676.594ZM685.234 37.9201H705.106C707.474 37.9201 709.522 37.2801 711.25 36.0001C713.042 34.7201 714.418 32.9921 715.378 30.8161C716.402 28.6401 716.914 26.2721 716.914 23.7121C716.914 21.0241 716.338 18.6241 715.186 16.5121C714.034 14.3361 712.53 12.6401 710.674 11.4241C708.818 10.2081 706.77 9.60007 704.53 9.60007H685.234V37.9201ZM756.301 71.0401C752.525 71.0401 749.069 70.3681 745.933 69.0241C742.861 67.6161 740.173 65.7281 737.869 63.3601C735.629 60.9281 733.869 58.1441 732.589 55.0081C731.373 51.8721 730.765 48.5441 730.765 45.0241C730.765 40.2881 731.853 35.9681 734.029 32.0641C736.205 28.1601 739.213 25.0241 743.053 22.6561C746.957 20.2881 751.405 19.1041 756.397 19.1041C761.453 19.1041 765.837 20.3201 769.549 22.7521C773.325 25.1201 776.237 28.2561 778.285 32.1601C780.397 36.0001 781.453 40.1601 781.453 44.6401C781.453 45.2801 781.421 45.9201 781.357 46.5601C781.357 47.1361 781.325 47.5841 781.261 47.9041H739.693C739.949 51.1681 740.845 54.0801 742.381 56.6401C743.981 59.1361 746.029 61.1201 748.525 62.5921C751.021 64.0001 753.709 64.7041 756.589 64.7041C759.661 64.7041 762.541 63.9361 765.229 62.4001C767.981 60.8641 769.869 58.8481 770.893 56.3521L778.189 58.3681C777.101 60.8001 775.469 62.9761 773.293 64.8961C771.181 66.8161 768.653 68.3201 765.709 69.4081C762.829 70.4961 759.693 71.0401 756.301 71.0401ZM739.405 42.0481H773.581C773.325 38.7841 772.397 35.9041 770.797 33.4081C769.197 30.9121 767.149 28.9601 764.653 27.5521C762.157 26.1441 759.405 25.4401 756.397 25.4401C753.453 25.4401 750.733 26.1441 748.237 27.5521C745.741 28.9601 743.693 30.9121 742.093 33.4081C740.557 35.9041 739.661 38.7841 739.405 42.0481ZM808.027 71.0401C803.867 71.0401 799.963 70.3681 796.315 69.0241C792.667 67.6161 789.531 65.5361 786.907 62.7841L790.171 56.8321C793.051 59.5201 795.931 61.4401 798.811 62.5921C801.691 63.7441 804.635 64.3201 807.643 64.3201C811.099 64.3201 813.915 63.6801 816.091 62.4001C818.267 61.0561 819.355 59.1041 819.355 56.5441C819.355 54.6881 818.779 53.3121 817.627 52.4161C816.539 51.5201 814.971 50.7841 812.923 50.2081C810.875 49.5681 808.443 48.8641 805.627 48.0961C802.171 47.0721 799.259 45.9841 796.891 44.8321C794.523 43.6801 792.731 42.2401 791.515 40.5121C790.299 38.7841 789.691 36.6081 789.691 33.9841C789.691 30.7841 790.523 28.0961 792.187 25.9201C793.851 23.6801 796.123 21.9841 799.003 20.8321C801.947 19.6801 805.275 19.1041 808.987 19.1041C812.699 19.1041 816.059 19.6801 819.067 20.8321C822.075 21.9841 824.667 23.6801 826.843 25.9201L823.003 31.7761C821.019 29.7281 818.843 28.2241 816.475 27.2641C814.107 26.2401 811.451 25.7281 808.507 25.7281C806.779 25.7281 805.083 25.9521 803.419 26.4001C801.755 26.7841 800.379 27.5201 799.291 28.6081C798.203 29.6321 797.659 31.1041 797.659 33.0241C797.659 34.6241 798.075 35.9041 798.907 36.8641C799.803 37.7601 801.083 38.5281 802.747 39.1681C804.475 39.8081 806.555 40.5121 808.987 41.2801C812.763 42.3681 816.027 43.4561 818.779 44.5441C821.595 45.6321 823.771 47.0401 825.307 48.7681C826.843 50.4961 827.611 52.8961 827.611 55.9681C827.611 60.7041 825.819 64.4161 822.235 67.1041C818.651 69.7281 813.915 71.0401 808.027 71.0401ZM854.902 71.0401C850.742 71.0401 846.838 70.3681 843.19 69.0241C839.542 67.6161 836.406 65.5361 833.782 62.7841L837.046 56.8321C839.926 59.5201 842.806 61.4401 845.686 62.5921C848.566 63.7441 851.51 64.3201 854.518 64.3201C857.974 64.3201 860.79 63.6801 862.966 62.4001C865.142 61.0561 866.23 59.1041 866.23 56.5441C866.23 54.6881 865.654 53.3121 864.502 52.4161C863.414 51.5201 861.846 50.7841 859.798 50.2081C857.75 49.5681 855.318 48.8641 852.502 48.0961C849.046 47.0721 846.134 45.9841 843.766 44.8321C841.398 43.6801 839.606 42.2401 838.39 40.5121C837.174 38.7841 836.566 36.6081 836.566 33.9841C836.566 30.7841 837.398 28.0961 839.062 25.9201C840.726 23.6801 842.998 21.9841 845.878 20.8321C848.822 19.6801 852.15 19.1041 855.862 19.1041C859.574 19.1041 862.934 19.6801 865.942 20.8321C868.95 21.9841 871.542 23.6801 873.718 25.9201L869.878 31.7761C867.894 29.7281 865.718 28.2241 863.35 27.2641C860.982 26.2401 858.326 25.7281 855.382 25.7281C853.654 25.7281 851.958 25.9521 850.294 26.4001C848.63 26.7841 847.254 27.5201 846.166 28.6081C845.078 29.6321 844.534 31.1041 844.534 33.0241C844.534 34.6241 844.95 35.9041 845.782 36.8641C846.678 37.7601 847.958 38.5281 849.622 39.1681C851.35 39.8081 853.43 40.5121 855.862 41.2801C859.638 42.3681 862.902 43.4561 865.654 44.5441C868.47 45.6321 870.646 47.0401 872.182 48.7681C873.718 50.4961 874.486 52.8961 874.486 55.9681C874.486 60.7041 872.694 64.4161 869.11 67.1041C865.526 69.7281 860.79 71.0401 854.902 71.0401ZM906.481 71.0401C902.705 71.0401 899.281 70.3681 896.209 69.0241C893.137 67.6161 890.481 65.7281 888.241 63.3601C886.001 60.9281 884.273 58.1441 883.057 55.0081C881.841 51.8721 881.233 48.5761 881.233 45.1201C881.233 41.6001 881.841 38.2721 883.057 35.1361C884.273 32.0001 886.001 29.2481 888.241 26.8801C890.481 24.4481 893.137 22.5601 896.209 21.2161C899.345 19.8081 902.769 19.1041 906.481 19.1041C910.257 19.1041 913.681 19.8081 916.753 21.2161C919.825 22.5601 922.481 24.4481 924.721 26.8801C927.025 29.2481 928.785 32.0001 930.001 35.1361C931.217 38.2721 931.825 41.6001 931.825 45.1201C931.825 48.5761 931.217 51.8721 930.001 55.0081C928.785 58.1441 927.057 60.9281 924.817 63.3601C922.577 65.7281 919.889 67.6161 916.753 69.0241C913.681 70.3681 910.257 71.0401 906.481 71.0401ZM889.873 45.2161C889.873 48.6721 890.609 51.8081 892.081 54.6241C893.617 57.4401 895.633 59.6801 898.129 61.3441C900.625 62.9441 903.409 63.7441 906.481 63.7441C909.553 63.7441 912.337 62.9121 914.833 61.2481C917.393 59.5841 919.409 57.3441 920.881 54.5281C922.417 51.6481 923.185 48.4801 923.185 45.0241C923.185 41.5681 922.417 38.4321 920.881 35.6161C919.409 32.8001 917.393 30.5601 914.833 28.8961C912.337 27.2321 909.553 26.4001 906.481 26.4001C903.409 26.4001 900.625 27.2641 898.129 28.9921C895.633 30.6561 893.617 32.8961 892.081 35.7121C890.609 38.5281 889.873 41.6961 889.873 45.2161ZM938.126 55.5841C938.126 52.3841 939.022 49.6321 940.814 47.3281C942.67 44.9601 945.198 43.1361 948.398 41.8561C951.598 40.5761 955.31 39.9361 959.534 39.9361C961.774 39.9361 964.142 40.1281 966.638 40.5121C969.134 40.8321 971.342 41.3441 973.262 42.0481V38.4001C973.262 34.5601 972.11 31.5521 969.806 29.3761C967.502 27.1361 964.238 26.0161 960.014 26.0161C957.262 26.0161 954.606 26.5281 952.046 27.5521C949.55 28.5121 946.894 29.9201 944.078 31.7761L941.006 25.8241C944.27 23.5841 947.534 21.9201 950.798 20.8321C954.062 19.6801 957.454 19.1041 960.974 19.1041C967.374 19.1041 972.43 20.8961 976.142 24.4801C979.854 28.0001 981.71 32.9281 981.71 39.2641V60.4801C981.71 61.5041 981.902 62.2721 982.286 62.7841C982.734 63.2321 983.438 63.4881 984.398 63.5521V70.0801C983.566 70.2081 982.83 70.3041 982.19 70.3681C981.614 70.4321 981.134 70.4641 980.75 70.4641C978.766 70.4641 977.262 69.9201 976.238 68.8321C975.278 67.7441 974.734 66.5921 974.606 65.3761L974.414 62.2081C972.238 65.0241 969.39 67.2001 965.87 68.7361C962.35 70.2721 958.862 71.0401 955.406 71.0401C952.078 71.0401 949.102 70.3681 946.478 69.0241C943.854 67.6161 941.806 65.7601 940.334 63.4561C938.862 61.0881 938.126 58.4641 938.126 55.5841ZM970.766 59.1361C971.534 58.2401 972.142 57.3441 972.59 56.4481C973.038 55.4881 973.262 54.6881 973.262 54.0481V47.8081C971.278 47.0401 969.198 46.4641 967.022 46.0801C964.846 45.6321 962.702 45.4081 960.59 45.4081C956.302 45.4081 952.814 46.2721 950.126 48.0001C947.502 49.6641 946.19 51.9681 946.19 54.9121C946.19 56.5121 946.606 58.0801 947.438 59.6161C948.334 61.0881 949.614 62.3041 951.278 63.2641C953.006 64.2241 955.118 64.7041 957.614 64.7041C960.238 64.7041 962.734 64.1921 965.102 63.1681C967.47 62.0801 969.358 60.7361 970.766 59.1361ZM995.41 7.62939e-05H1003.86V57.1201C1003.86 59.8721 1004.24 61.5681 1005.01 62.2081C1005.78 62.8481 1006.71 63.1681 1007.79 63.1681C1009.14 63.1681 1010.42 63.0401 1011.63 62.7841C1012.85 62.4641 1013.87 62.1441 1014.71 61.8241L1016.05 68.7361C1014.64 69.3121 1012.98 69.7921 1011.06 70.1761C1009.14 70.5601 1007.44 70.7521 1005.97 70.7521C1002.71 70.7521 1000.11 69.8241 998.194 67.9681C996.338 66.1121 995.41 63.5201 995.41 60.1921V7.62939e-05Z" fill="#0F1D4B"/>
<path d="M258.275 155.816V166.184H248.387V177.032H236.771V166.184H226.883V155.816H236.771V144.968H248.387V155.816H258.275ZM340.272 183.464V195.08H292.944V126.92H339.408V138.536H306.192V154.952H334.896V165.704H306.192V183.464H340.272ZM367.693 196.04C363.405 196.04 359.309 195.336 355.405 193.928C351.501 192.52 348.141 190.44 345.325 187.688L349.933 179.336C352.941 181.768 355.885 183.56 358.765 184.712C361.709 185.864 364.525 186.44 367.213 186.44C369.709 186.44 371.693 185.992 373.165 185.096C374.701 184.2 375.469 182.856 375.469 181.064C375.469 179.848 375.053 178.92 374.221 178.28C373.389 177.576 372.173 176.968 370.573 176.456C369.037 175.944 367.149 175.368 364.909 174.728C361.197 173.512 358.093 172.328 355.597 171.176C353.101 170.024 351.213 168.584 349.933 166.856C348.717 165.064 348.109 162.792 348.109 160.04C348.109 156.712 348.941 153.864 350.605 151.496C352.333 149.064 354.701 147.176 357.709 145.832C360.781 144.488 364.365 143.816 368.461 143.816C372.045 143.816 375.437 144.392 378.637 145.544C381.837 146.632 384.749 148.424 387.373 150.92L382.189 159.08C379.629 157.096 377.197 155.656 374.893 154.76C372.589 153.8 370.253 153.32 367.885 153.32C366.541 153.32 365.261 153.48 364.045 153.8C362.893 154.12 361.933 154.664 361.165 155.432C360.461 156.136 360.109 157.16 360.109 158.504C360.109 159.72 360.429 160.68 361.069 161.384C361.773 162.024 362.797 162.6 364.141 163.112C365.549 163.624 367.245 164.2 369.229 164.84C373.261 165.992 376.653 167.176 379.405 168.392C382.221 169.608 384.333 171.112 385.741 172.904C387.149 174.632 387.853 177.032 387.853 180.104C387.853 185.096 386.029 189 382.381 191.816C378.733 194.632 373.837 196.04 367.693 196.04ZM426.465 192.488C425.377 192.936 424.065 193.448 422.529 194.024C420.993 194.6 419.329 195.048 417.537 195.368C415.809 195.752 414.049 195.944 412.257 195.944C409.889 195.944 407.713 195.528 405.729 194.696C403.745 193.864 402.145 192.552 400.929 190.76C399.777 188.904 399.201 186.504 399.201 183.56V154.664H392.577V144.776H399.201V128.456H412.065V144.776H422.625V154.664H412.065V179.24C412.129 180.968 412.609 182.216 413.505 182.984C414.401 183.752 415.521 184.136 416.865 184.136C418.209 184.136 419.521 183.912 420.801 183.464C422.081 183.016 423.105 182.632 423.873 182.312L426.465 192.488ZM463.117 155.912C459.213 155.912 455.725 156.68 452.653 158.216C449.581 159.688 447.373 161.832 446.029 164.648V195.08H433.165V144.776H444.973V155.528C446.765 152.072 449.037 149.352 451.789 147.368C454.541 145.384 457.453 144.296 460.525 144.104C461.229 144.104 461.773 144.104 462.157 144.104C462.541 144.104 462.861 144.136 463.117 144.2V155.912ZM466.552 180.2C466.552 176.936 467.448 174.088 469.24 171.656C471.096 169.16 473.656 167.24 476.92 165.896C480.184 164.552 483.928 163.88 488.152 163.88C490.264 163.88 492.408 164.04 494.584 164.36C496.76 164.68 498.648 165.192 500.248 165.896V163.208C500.248 160.008 499.288 157.544 497.368 155.816C495.512 154.088 492.728 153.224 489.016 153.224C486.264 153.224 483.64 153.704 481.144 154.664C478.648 155.624 476.024 157.032 473.272 158.888L469.144 150.44C472.472 148.264 475.864 146.632 479.32 145.544C482.84 144.456 486.52 143.912 490.36 143.912C497.528 143.912 503.096 145.704 507.064 149.288C511.096 152.872 513.112 157.992 513.112 164.648V180.68C513.112 182.024 513.336 182.984 513.784 183.56C514.296 184.136 515.096 184.488 516.184 184.616V195.08C515.032 195.272 513.976 195.432 513.016 195.56C512.12 195.688 511.352 195.752 510.712 195.752C508.152 195.752 506.2 195.176 504.856 194.024C503.576 192.872 502.776 191.464 502.456 189.8L502.168 187.208C499.992 190.024 497.272 192.2 494.008 193.736C490.744 195.272 487.416 196.04 484.024 196.04C480.696 196.04 477.688 195.368 475 194.024C472.376 192.616 470.296 190.728 468.76 188.36C467.288 185.928 466.552 183.208 466.552 180.2ZM497.848 182.792C498.552 182.024 499.128 181.256 499.576 180.488C500.024 179.72 500.248 179.016 500.248 178.376V173.288C498.712 172.648 497.048 172.168 495.256 171.848C493.464 171.464 491.768 171.272 490.168 171.272C486.84 171.272 484.088 172.008 481.912 173.48C479.8 174.888 478.744 176.776 478.744 179.144C478.744 180.424 479.096 181.64 479.8 182.792C480.504 183.944 481.528 184.872 482.872 185.576C484.216 186.28 485.816 186.632 487.672 186.632C489.592 186.632 491.48 186.28 493.336 185.576C495.192 184.808 496.696 183.88 497.848 182.792ZM554.809 192.488C553.721 192.936 552.409 193.448 550.873 194.024C549.337 194.6 547.673 195.048 545.881 195.368C544.153 195.752 542.393 195.944 540.601 195.944C538.233 195.944 536.057 195.528 534.073 194.696C532.089 193.864 530.489 192.552 529.273 190.76C528.121 188.904 527.545 186.504 527.545 183.56V154.664H520.921V144.776H527.545V128.456H540.409V144.776H550.969V154.664H540.409V179.24C540.473 180.968 540.953 182.216 541.849 182.984C542.745 183.752 543.865 184.136 545.209 184.136C546.553 184.136 547.865 183.912 549.145 183.464C550.425 183.016 551.449 182.632 552.217 182.312L554.809 192.488ZM584.274 196.04C580.242 196.04 576.594 195.368 573.33 194.024C570.066 192.616 567.282 190.728 564.978 188.36C562.674 185.928 560.882 183.176 559.602 180.104C558.386 176.968 557.778 173.672 557.778 170.216C557.778 165.416 558.834 161.032 560.946 157.064C563.122 153.096 566.194 149.928 570.162 147.56C574.194 145.128 578.93 143.912 584.37 143.912C589.874 143.912 594.578 145.128 598.482 147.56C602.386 149.928 605.362 153.096 607.41 157.064C609.522 160.968 610.578 165.192 610.578 169.736C610.578 170.504 610.546 171.304 610.482 172.136C610.418 172.904 610.354 173.544 610.29 174.056H571.41C571.666 176.616 572.402 178.856 573.618 180.776C574.898 182.696 576.498 184.168 578.418 185.192C580.402 186.152 582.514 186.632 584.754 186.632C587.314 186.632 589.714 186.024 591.954 184.808C594.258 183.528 595.826 181.864 596.658 179.816L607.698 182.888C606.482 185.448 604.722 187.72 602.418 189.704C600.178 191.688 597.522 193.256 594.45 194.408C591.378 195.496 587.986 196.04 584.274 196.04ZM571.122 165.896H597.426C597.17 163.336 596.434 161.128 595.218 159.272C594.066 157.352 592.53 155.88 590.61 154.856C588.69 153.768 586.546 153.224 584.178 153.224C581.874 153.224 579.762 153.768 577.842 154.856C575.986 155.88 574.45 157.352 573.234 159.272C572.082 161.128 571.378 163.336 571.122 165.896ZM588.402 138.92L580.146 136.424L585.33 125H597.33L588.402 138.92ZM638.095 195.368C634.767 195.368 631.695 194.728 628.879 193.448C626.127 192.104 623.727 190.248 621.679 187.88C619.695 185.512 618.159 182.792 617.071 179.72C615.983 176.648 615.439 173.384 615.439 169.928C615.439 166.28 616.015 162.888 617.167 159.752C618.319 156.616 619.919 153.864 621.967 151.496C624.079 149.064 626.543 147.208 629.359 145.928C632.239 144.584 635.407 143.912 638.863 143.912C642.767 143.912 646.191 144.808 649.135 146.6C652.079 148.328 654.511 150.664 656.431 153.608V144.776H667.663V192.68C667.663 197.672 666.447 201.928 664.015 205.448C661.647 209.032 658.351 211.752 654.127 213.608C649.903 215.528 645.103 216.488 639.727 216.488C634.287 216.488 629.679 215.56 625.903 213.704C622.127 211.912 618.895 209.352 616.207 206.024L623.215 199.208C625.135 201.576 627.535 203.432 630.415 204.776C633.359 206.12 636.463 206.792 639.727 206.792C642.479 206.792 644.975 206.28 647.215 205.256C649.519 204.296 651.343 202.76 652.687 200.648C654.095 198.6 654.799 195.944 654.799 192.68V186.344C653.135 189.224 650.767 191.464 647.695 193.064C644.687 194.6 641.487 195.368 638.095 195.368ZM642.415 185.096C643.823 185.096 645.167 184.872 646.447 184.424C647.727 183.976 648.911 183.368 649.999 182.6C651.087 181.832 652.047 180.936 652.879 179.912C653.711 178.824 654.351 177.736 654.799 176.648V164.648C654.031 162.664 652.943 160.936 651.535 159.464C650.191 157.992 648.655 156.872 646.927 156.104C645.263 155.272 643.503 154.856 641.647 154.856C639.663 154.856 637.871 155.272 636.271 156.104C634.671 156.936 633.295 158.12 632.143 159.656C630.991 161.128 630.095 162.792 629.455 164.648C628.879 166.44 628.591 168.328 628.591 170.312C628.591 172.36 628.943 174.28 629.647 176.072C630.351 177.864 631.311 179.432 632.527 180.776C633.807 182.12 635.279 183.176 636.943 183.944C638.671 184.712 640.495 185.096 642.415 185.096ZM679.258 195.08V144.776H692.122V195.08H679.258ZM679.258 137.768V125H692.122V137.768H679.258ZM727.151 196.04C723.055 196.04 719.375 195.368 716.111 194.024C712.847 192.616 710.063 190.696 707.759 188.264C705.455 185.768 703.663 182.952 702.383 179.816C701.167 176.68 700.559 173.384 700.559 169.928C700.559 165.192 701.615 160.872 703.727 156.968C705.903 153 708.975 149.832 712.943 147.464C716.911 145.096 721.615 143.912 727.055 143.912C732.495 143.912 737.167 145.096 741.071 147.464C744.975 149.832 747.887 152.936 749.807 156.776L737.231 160.616C736.143 158.76 734.703 157.352 732.911 156.392C731.119 155.368 729.135 154.856 726.959 154.856C724.527 154.856 722.287 155.496 720.239 156.776C718.255 157.992 716.687 159.752 715.535 162.056C714.383 164.296 713.807 166.92 713.807 169.928C713.807 172.872 714.383 175.496 715.535 177.8C716.751 180.04 718.351 181.832 720.335 183.176C722.319 184.456 724.527 185.096 726.959 185.096C728.495 185.096 729.935 184.84 731.279 184.328C732.687 183.816 733.935 183.112 735.023 182.216C736.111 181.32 736.911 180.296 737.423 179.144L749.999 182.984C748.847 185.48 747.151 187.72 744.911 189.704C742.735 191.688 740.143 193.256 737.135 194.408C734.191 195.496 730.863 196.04 727.151 196.04ZM780.678 196.04C776.582 196.04 772.902 195.368 769.638 194.024C766.374 192.616 763.59 190.696 761.286 188.264C759.046 185.832 757.318 183.048 756.102 179.912C754.886 176.776 754.278 173.48 754.278 170.024C754.278 166.504 754.886 163.176 756.102 160.04C757.318 156.904 759.046 154.12 761.286 151.688C763.59 149.256 766.374 147.368 769.638 146.024C772.902 144.616 776.582 143.912 780.678 143.912C784.774 143.912 788.422 144.616 791.622 146.024C794.886 147.368 797.67 149.256 799.974 151.688C802.278 154.12 804.006 156.904 805.158 160.04C806.374 163.176 806.982 166.504 806.982 170.024C806.982 173.48 806.374 176.776 805.158 179.912C804.006 183.048 802.278 185.832 799.974 188.264C797.734 190.696 794.982 192.616 791.718 194.024C788.454 195.368 784.774 196.04 780.678 196.04ZM767.526 170.024C767.526 172.968 768.102 175.592 769.254 177.896C770.406 180.136 771.974 181.896 773.958 183.176C775.942 184.456 778.182 185.096 780.678 185.096C783.11 185.096 785.318 184.456 787.302 183.176C789.286 181.832 790.854 180.04 792.006 177.8C793.222 175.496 793.83 172.872 793.83 169.928C793.83 167.048 793.222 164.456 792.006 162.152C790.854 159.848 789.286 158.056 787.302 156.776C785.318 155.496 783.11 154.856 780.678 154.856C778.182 154.856 775.942 155.528 773.958 156.872C771.974 158.152 770.406 159.944 769.254 162.248C768.102 164.488 767.526 167.08 767.526 170.024Z" fill="url(#paint0_linear_980_593)"/>
<defs>
<linearGradient id="paint0_linear_980_593" x1="1544.75" y1="261.352" x2="1143.11" y2="-717.696" gradientUnits="userSpaceOnUse">
<stop stop-color="#0F1D4B"/>
<stop offset="1" stop-color="#00D9BD" stop-opacity="0.71"/>
</linearGradient>
</defs>
</svg>
